<?xml version="1.0" encoding="utf-8"?>
<!-- Generator: Adobe Illustrator 25.0.0, SVG Export Plug-In . SVG Version: 6.00 Build 0)  -->
<svg version="1.1" id="Layer_1" xmlns="http://www.w3.org/2000/svg" xmlns:xlink="http://www.w3.org/1999/xlink" x="0px" y="0px"
	 viewBox="0 0 28.4 28.4" style="enable-background:new 0 0 28.4 28.4;" xml:space="preserve">
<style type="text/css">
	.st0{fill:#EB5D48;}
</style>
<g>
	<path class="st0" d="M2,27.2c0-1.5,0.8-2.6,1.8-3.4c2-1.7,4.4-2.4,6.9-2.8c0.5-0.1,1-0.1,1.5-0.2c0-3.7,0-7.4,0-11.3
		c-1.3,0-2.5,0-3.8,0c-0.6,0-0.8-0.2-0.8-0.8c0-1,0-2,0-3c1.6,0,3,0,4.6,0c0-1.5,0-2.9,0-4.5c1.3,0,2.5,0,3.8,0c0,1.4,0,2.9,0,4.4
		c1.6,0,3,0,4.6,0c0,1.3,0,2.5,0,3.9c-1.5,0-3,0-4.5,0c0,3.8,0,7.5,0,11.1c1.9,0.5,3.8,0.9,5.5,1.6c1.3,0.5,2.4,1.4,3.5,2.3
		c0.8,0.7,1.3,1.7,1.3,2.9C18.4,27.2,10.3,27.2,2,27.2z"/>
</g>
</svg>
