<?xml version="1.0" encoding="utf-8"?>
<!-- Generator: Adobe Illustrator 25.0.0, SVG Export Plug-In . SVG Version: 6.00 Build 0)  -->
<svg version="1.1" id="Layer_1" xmlns="http://www.w3.org/2000/svg" xmlns:xlink="http://www.w3.org/1999/xlink" x="0px" y="0px"
	 viewBox="0 0 28.4 28.4" style="enable-background:new 0 0 28.4 28.4;" xml:space="preserve">
<style type="text/css">
	.st0{fill:#E7412B;}
</style>
<g>
	<path class="st0" d="M0.7,25.5c0.4,0,0.7,0,1.1,0h0.1c0-0.5,0-1,0-1.5c0.4,0,0.9,0,1.3,0c0-0.5,0-1,0-1.5c7.3,0,14.5,0,21.8,0
		c0,0.5,0,1,0,1.5c0.4,0,0.9,0,1.3,0c0,0.5,0,1,0,1.5c0.4,0,0.8,0,1.3,0c0,0.5,0,1,0,1.5c-0.1,0-0.1,0-0.2,0c-8.9,0-17.7,0-26.6,0
		H0.7C0.7,26.6,0.7,26,0.7,25.5z"/>
	<path class="st0" d="M14.2,1.3c0.1,0,0.2,0.1,0.3,0.1c3.6,1.7,7.3,3.4,10.9,5.1c0.3,0.1,0.5,0.2,0.8,0.4c0.1,0,0.1,0.1,0.1,0.1
		c0,0.3,0,0.6,0,0.8c-8,0-16,0-24.1,0c0-0.1,0-0.1,0-0.2c0-0.2,0-0.4,0-0.7c0-0.1,0-0.1,0.1-0.1C3.5,6.3,4.8,5.7,6,5.1
		C8.7,3.8,11.4,2.6,14.2,1.3C14.1,1.3,14.1,1.3,14.2,1.3L14.2,1.3z"/>
	<path class="st0" d="M23.9,8.3c0,0.5,0,1,0,1.5c-6.5,0-12.9,0-19.4,0c0-0.5,0-1,0-1.5C10.9,8.3,17.4,8.3,23.9,8.3z"/>
	<path class="st0" d="M23.3,22.1c-0.9,0-1.9,0-2.8,0c0.1-3.9,0.2-7.9,0.3-11.8c0.7,0,1.5,0,2.2,0C23.1,14.2,23.2,18.1,23.3,22.1z"/>
	<path class="st0" d="M10.2,22.1c0.1-3.9,0.2-7.9,0.3-11.8c0.7,0,1.5,0,2.2,0c0.1,3.9,0.2,7.9,0.3,11.8
		C12.1,22.1,11.1,22.1,10.2,22.1z"/>
	<path class="st0" d="M18.1,22.1c-0.9,0-1.9,0-2.8,0c0.1-3.9,0.2-7.9,0.3-11.8c0.7,0,1.5,0,2.2,0C17.9,14.2,18,18.1,18.1,22.1z"/>
	<path class="st0" d="M5.3,10.3c0.7,0,1.5,0,2.2,0c0.1,3.9,0.2,7.9,0.3,11.8c-0.9,0-1.9,0-2.8,0C5.1,18.1,5.2,14.2,5.3,10.3z"/>
</g>
</svg>
