<?xml version="1.0" encoding="utf-8"?>
<!-- Generator: Adobe Illustrator 25.0.0, SVG Export Plug-In . SVG Version: 6.00 Build 0)  -->
<svg version="1.1" id="Layer_1" xmlns="http://www.w3.org/2000/svg" xmlns:xlink="http://www.w3.org/1999/xlink" x="0px" y="0px"
	 viewBox="0 0 28.35 28.35" style="enable-background:new 0 0 28.35 28.35;" xml:space="preserve">
<style type="text/css">
	.st0{fill:#F6AF95;}
	.st1{fill:#E30613;}
</style>
<rect x="0.5" y="0.5" class="st0" width="27.35" height="27.35"/>
<path class="st1" d="M27.35,1v26.35H1V1H27.35 M28.35,0H0v28.35h28.35V0z"/>
<path class="st1" d="M15,1.77v1.9h2v1.91h-2v3.11c0,0.1,0.03,0.2,0.1,0.27c1.27,1.36,2.53,2.76,3.79,4.19
	c0.04,0.06,0.06,0.14,0.06,0.21c0,0.71,0,1.42,0,2.12c-0.01,0.1,0.04,0.19,0.13,0.23l4,2.51l1.49,0.93c0.44,0.26,0.6,0.83,0.34,1.27
	c-0.01,0.02-0.02,0.04-0.04,0.06c-0.31,0.46-0.93,0.58-1.39,0.27c0,0-0.01-0.01-0.01-0.01L23,20.41v6.16h-6v-1.82
	c0.01-0.59-0.16-1.16-0.5-1.64c-0.49-0.71-1.26-1.17-2.11-1.27c-1.4-0.2-2.75,0.6-3.24,1.93c-0.12,0.4-0.18,0.81-0.15,1.23v1.58H5
	v-6.11l-0.48,0.26c-0.47,0.29-1.09,0.14-1.37-0.33C3.05,20.24,3,20.06,3,19.88c0-0.33,0.19-0.64,0.48-0.79l1.75-0.94l3.62-1.95
	c0.09,0,0.16-0.08,0.16-0.16C9,16.02,9,16.01,9,16v-2.65c0-0.09,0.03-0.18,0.1-0.24l3.2-3.52c0.21-0.23,0.43-0.45,0.63-0.69
	c0.04-0.03,0.06-0.08,0.07-0.13V5.65c0-0.02,0-0.05,0-0.07h-2v-1.9h2V1.77H15z M14,14.12c-1.09-0.21-2.13,0.51-2.34,1.59
	s0.51,2.13,1.59,2.34c0.25,0.05,0.5,0.05,0.75,0c1.09,0.21,2.13-0.51,2.34-1.59s-0.51-2.13-1.59-2.34
	C14.5,14.07,14.25,14.07,14,14.12z"/>
</svg>
