<?xml version="1.0" encoding="utf-8"?>
<!-- Generator: Adobe Illustrator 25.0.0, SVG Export Plug-In . SVG Version: 6.00 Build 0)  -->
<svg version="1.1" id="Layer_1" xmlns="http://www.w3.org/2000/svg" xmlns:xlink="http://www.w3.org/1999/xlink" x="0px" y="0px"
	 viewBox="0 0 28.4 28.4" style="enable-background:new 0 0 28.4 28.4;" xml:space="preserve">
<style type="text/css">
	.st0{fill:#312783;}
</style>
<g>
	<path class="st0" d="M19.1,14.6c-0.1,0.3-0.3,0.5-0.4,0.9c1.1,0,2.1,0.2,2.9,0c1.2-0.4-0.9-0.6,3.5-0.4c0,0.6,0,1.2,0,1.7
		c0.2,0,0.4,0.1,0.6,0.1c0,0.2,0,0.4,0.1,0.6c0.4,0.1,0.7,0.2,1,0.3c0,0.1,0,0.1,0,0.2c-0.2,0.2-0.4,0.5-0.7,0.5
		c-0.5,0.1-0.4,0.4-0.4,0.8c0,1.6,0,3.1,0,4.8c0.8,0,1.5,0,2.3,0c0,0.3,0,0.6,0,0.9c-9.2,0-18.3,0-27.5,0c0-0.3,0-0.6,0-0.9
		c0.7,0,1.4,0,2.2,0c0-1.8,0-3.6,0-5.3c-0.5-0.3-0.9-0.5-1.3-0.7c0-0.1,0-0.1,0-0.2c0.3-0.1,0.6-0.2,0.9-0.3c0-0.1,0-0.3,0.1-0.6
		c0.2-0.1,0.3-0.1,0.5-0.2c0-0.4,0-0.8,0-1.1c0-0.1,0.2-0.3,0.3-0.3c0.9,0,1.9-0.2,2.8,0c1.3,0.4,2.5,0,3.9,0.3
		c-0.3-0.6-0.5-1.1-0.7-1.7c0.3,0,0.6-0.1,1-0.1c0-0.7,0-1.4,0-2.1c0-0.3-0.3-0.5-0.4-0.8c-0.1-0.1-0.2-0.2-0.3-0.3
		c0.1-0.1,0.3-0.1,0.4-0.2c0.1,0,0.1,0,0.3,0C10,10.1,10,9.8,9.9,9.5c0.1,0,0.3-0.1,0.5-0.2c0.2-1.6,1.1-2.6,2.6-3
		c-0.3-0.4,0-0.6,0.3-0.7c0.1-1.2,0.1-1.2-0.3-1.5c0.2-0.2,0.5-0.4,0.7-0.6c0.1,0,0.1-0.2,0.1-0.2c-0.5-0.8,0.3-1.2,0.3-1.8
		c0,0.6,0.3,0.5,0.4,1.2c0,0.1,0,0.2,0,0.2c-0.1,0.2-0.3,0.5,0,0.7c0.2,0.1,0.4,0.3,0.6,0.5c-0.7,0.3-0.2,0.9-0.4,1.4
		c0.3,0.1,0.8,0.1,0.4,0.7c1.6,0.4,2.6,1.4,2.8,3.1c0.2,0.1,0.4,0.1,0.6,0.2c-0.1,0.3-0.1,0.5-0.2,0.8c0.2,0,0.3,0,0.5,0
		c0.1,0,0.2,0.1,0.3,0.1c-0.1,0.1-0.1,0.2-0.2,0.3c-0.1,0.4-0.6,0.6-0.6,1.1c0.1,0.6,0,1.2,0,1.8c0.3,0,0.6,0.1,0.9,0.1 M21.7,17.6
		c-0.2-0.1-0.3-0.2-0.4-0.2c-2.3-0.8-4.6-1.7-6.9-2.5c-0.2-0.1-0.6-0.1-0.8,0c-2.2,0.8-4.4,1.6-6.6,2.4c-0.1,0.1-0.3,0.1-0.6,0.3
		C11.5,17.6,16.5,17.6,21.7,17.6z M15.2,23.3c0.3,0.1,0.5,0,0.5-0.3c0-1.3,0-2.6,0-4c0-0.4-0.2-0.4-0.5-0.3
		C15.2,20.2,15.2,21.8,15.2,23.3z M19.9,23.3c0,0,0.1,0.1,0.1,0.1c0.1-0.1,0.4-0.2,0.4-0.3c0-1.5,0-2.9,0-4.4c-0.2,0-0.4,0-0.5,0
		C19.9,20.2,19.9,21.8,19.9,23.3z M9.3,18.7c-0.4-0.1-0.6,0-0.5,0.3c0,1.3,0,2.6,0,3.9c0,0.4,0.2,0.5,0.5,0.4
		C9.3,21.8,9.3,20.2,9.3,18.7z M12.5,23.3c0.1,0,0.1,0.1,0.2,0.1c0.1-0.1,0.3-0.3,0.3-0.4c0-1.3,0-2.6,0-4c0-0.4-0.1-0.5-0.5-0.3
		C12.5,20.2,12.5,21.8,12.5,23.3z M11.8,23.4c0.1,0,0.1-0.1,0.2-0.1c0-1.5,0-3.1,0-4.6c-0.4-0.1-0.5,0-0.5,0.3c0,1.3,0,2.6,0,4
		C11.5,23.2,11.7,23.3,11.8,23.4z M5.7,22.2c0-0.6,0-1.2,0-1.7c0-0.2-0.5-0.6-0.6-0.6c-0.1,0-0.5,0.3-0.5,0.6c-0.1,0.6,0,1.1,0,1.8
		C4.9,22.2,5.2,22.2,5.7,22.2z M23.5,22.2c0-0.6,0-1.2,0-1.7c0-0.3-0.2-0.6-0.5-0.6c-0.2,0.1-0.5,0.3-0.6,0.6c-0.1,0.6,0,1.1,0,1.7
		C22.7,22.2,23.1,22.2,23.5,22.2z M8.3,18.7c-0.1,0-0.1-0.1-0.2-0.1C8,18.7,7.8,18.8,7.8,19c0,1.4,0,2.7,0,4.1
		c0,0.1,0.2,0.2,0.3,0.3c0.1-0.1,0.2-0.2,0.2-0.3C8.3,21.6,8.3,20.2,8.3,18.7z M16.2,18.7c0,1.5,0,2.9,0,4.3c0,0.1,0.2,0.2,0.2,0.3
		c0.1-0.1,0.2-0.2,0.2-0.3c0-1.3,0-2.7,0-4C16.7,18.7,16.5,18.6,16.2,18.7z M19.4,18.7c-0.1,0-0.1-0.1-0.2-0.1
		c-0.1,0.1-0.3,0.3-0.3,0.4c0,1.4,0,2.7,0,4.1c0,0.1,0.2,0.2,0.3,0.3c0.1-0.1,0.2-0.2,0.2-0.3C19.4,21.6,19.4,20.2,19.4,18.7z
		 M15,13.8c0-0.4,0.1-1.8,0-2.1c0-0.2-0.7-0.9-0.8-0.9c-0.1,0-0.9,0.8-0.9,0.9c-0.1,0.3,0,1.7,0,2.1C13.5,13.8,14.6,13.8,15,13.8z"
		/>
	<path class="st0" d="M3,13c-0.2,0-0.1-0.2-0.3-0.3c0.1-0.1,0.3-0.3,0.5-0.5c0-0.5,0.2-0.9,0.8-1.2c0.1-0.1,0.2-0.3,0.3-0.4
		c0.1-0.2,0.1-0.5,0.1-0.9c0.1,0.1,0.1,0.2,0.1,0.2c0.1,0.6,0.3,1.1,0.9,1.3c0.2,0.1,0.3,0.5,0.4,0.7c0.1,0.2,0.2,0.3,0.3,0.5
		c0,0.1,0.1,0.2,0.1,0.3c0,0.1,0,0.2-0.1,0.2 M6.1,12.9c0,0.3,0,0.7,0,1c0,0.2-0.1,0.6,0.3,0.6c0,0,0.1,0.3,0,0.5
		c-0.1,0.1-0.3,0.2-0.5,0.2c-0.9,0-1.9,0-2.8,0c-0.2,0-0.5-0.1-0.6-0.3c-0.2-0.3,0.1-0.4,0.3-0.4c0.1,0,0.1-0.2,0.1-0.3
		c0-0.4,0-0.7,0-1.1 M4,14.4c0.5,0,0.7,0,1.1,0c-0.1-0.3-0.1-1-0.3-1.2c-0.1-0.1-0.6-0.1-0.7,0C4,13.4,4.1,14.1,4,14.4z"/>
	<path class="st0" d="M21.9,12.9c1.1,0,2.1,0,3.2,0c0,0.3,0,0.7,0,1c0,0.2-0.1,0.6,0.3,0.6c0.1,0,0.1,0.2,0.1,0.3
		c-0.1,0.1-0.2,0.3-0.3,0.3c-0.3,0.1-0.5,0-0.8,0c-0.8,0-1.6,0-2.4,0c-0.2,0-0.4-0.2-0.6-0.3c0.1-0.1,0.2-0.3,0.3-0.5
		c0,0,0.1,0,0.1,0C21.9,13.9,21.9,13.5,21.9,12.9z M23.9,14.5c-0.1-0.4,0-0.9-0.2-1.2c0-0.1-0.7-0.1-0.7,0c-0.1,0.3-0.1,0.9-0.2,1.2
		C23.2,14.5,23.5,14.5,23.9,14.5z"/>
	<path class="st0" d="M23.5,9.9c0,0.1,0,0.1,0.1,0.2c0.1,0.6,0.2,1,0.8,1.3c0.2,0.1,0.3,0.4,0.4,0.7c0.1,0.2,0,0.5,0.4,0.5
		c0,0,0.1,0.2,0.1,0.2c0,0.1-0.1,0.2-0.2,0.2c-1,0-2.1,0-3.1,0c-0.1,0-0.1-0.2-0.2-0.3c0.5-0.2,0.3-0.7,0.5-1
		c0.1-0.1,0.1-0.2,0.2-0.3C23.2,11.2,23.3,10.5,23.5,9.9z"/>
	<path class="st0" d="M14.1,15.2"/>
	<path class="st0" d="M8.7,17.2c3.6,0,7.2,0,10.8,0"/>
	<path class="st0" d="M11.6,16.3c0.9-0.3,1.6-0.8,2.5-0.8c0.9,0,1.5,0.4,2.3,0.8c1.1,0.4,1.9,0.6,3.1,0.9c-3.6,0-7.2,0-10.8,0"/>
</g>
</svg>
