<?xml version="1.0" encoding="utf-8"?>
<!-- Generator: Adobe Illustrator 25.0.0, SVG Export Plug-In . SVG Version: 6.00 Build 0)  -->
<svg version="1.1" id="Layer_1" xmlns="http://www.w3.org/2000/svg" xmlns:xlink="http://www.w3.org/1999/xlink" x="0px" y="0px"
	 viewBox="0 0 28.35 28.35" style="enable-background:new 0 0 28.35 28.35;" xml:space="preserve">
<style type="text/css">
	.st0{fill:#A4BDE4;}
	.st1{fill:#312783;}
</style>
<g>
	<rect x="0.5" y="0.5" class="st0" width="27.35" height="27.35"/>
	<path class="st1" d="M27.35,1v26.35H1V1H27.35 M28.35,0H0v28.35h28.35V0L28.35,0z"/>
</g>
<g>
	<path class="st1" d="M21.94,25.49c-0.16-0.11-0.32-0.21-0.48-0.32c-2.24-1.58-4.49-3.16-6.73-4.75c-0.16-0.11-0.26-0.09-0.4,0.02
		c-2.28,1.65-4.57,3.29-6.86,4.93c-0.09,0.07-0.19,0.12-0.33,0.22c0.08-0.28,0.13-0.51,0.2-0.74c0.45-1.45,0.9-2.89,1.36-4.33
		c0.04-0.12,0.04-0.21-0.05-0.31c-0.39-0.49-0.41-0.83-0.05-1.33c0.24-0.34,0.52-0.66,0.8-0.97c0.17-0.19,0.22-0.39,0.25-0.63
		c0.05-0.39-0.11-0.6-0.41-0.83c-2.16-1.6-4.3-3.23-6.45-4.84c-0.09-0.07-0.17-0.14-0.3-0.25c0.14-0.01,0.21-0.01,0.29-0.01
		c2.48,0,4.97,0.01,7.45,0.01c0.16,0,0.27-0.04,0.36-0.17c0.16-0.21,0.35-0.39,0.51-0.6c0.15-0.21,0.34-0.29,0.59-0.23
		c0.17,0.04,0.24-0.02,0.3-0.19c0.79-2.4,1.59-4.79,2.39-7.18c0.02-0.07,0.05-0.13,0.1-0.25c0.14,0.38,0.26,0.72,0.38,1.06
		c0.66,1.92,1.31,3.85,1.97,5.77c0.04,0.12,0.15,0.25,0.26,0.32c0.53,0.34,0.95,0.79,1.32,1.29c0.09,0.12,0.18,0.16,0.32,0.16
		c2.51,0,5.03,0,7.54,0c0.06,0,0.13,0,0.25,0c-0.08,0.09-0.12,0.15-0.17,0.19c-2.14,1.61-4.27,3.22-6.41,4.82
		c-0.19,0.14-0.38,0.28-0.56,0.43c-0.04,0.03-0.1,0.11-0.09,0.14c0.06,0.23,0.11,0.47,0.32,0.63c0.27,0.21,0.54,0.44,0.8,0.67
		c0.53,0.48,0.51,1.18-0.05,1.62c-0.12,0.09-0.09,0.17-0.05,0.28c0.48,1.51,0.96,3.02,1.44,4.53c0.09,0.27,0.16,0.54,0.25,0.81
		C21.97,25.47,21.95,25.48,21.94,25.49z M10.71,17.17c-0.1-0.08-0.19-0.18-0.31-0.23c-0.09-0.04-0.2,0-0.31,0.01
		c0.01,0.1-0.01,0.23,0.03,0.31c0.06,0.11,0.18,0.19,0.29,0.3c-0.08,0.06-0.14,0.12-0.21,0.17c-0.52,0.44-0.99,0.92-1.35,1.5
		c-0.14,0.23-0.12,0.44,0.04,0.63c0.25,0.3,0.59,0.3,0.88-0.01c0.44-0.44,0.81-0.94,1.1-1.49c0.05-0.09,0.1-0.18,0.15-0.28
		c0.14,0.1,0.25,0.2,0.38,0.25c0.08,0.03,0.21,0.01,0.28-0.04c0.09-0.07,0.1-0.19-0.01-0.28c-0.12-0.1-0.23-0.2-0.36-0.31
		c0.13-0.15,0.23-0.26,0.33-0.38c0.05,0.05,0.07,0.06,0.08,0.08c1.44,1.63,3.8,1.89,5.55,0.59c0.12-0.09,0.2-0.08,0.31,0.02
		c0.58,0.49,1.16,0.96,1.74,1.44c0.16,0.14,0.34,0.2,0.55,0.14c0.49-0.14,0.63-0.68,0.26-1.04c-0.29-0.28-0.62-0.52-0.93-0.78
		c-0.31-0.26-0.63-0.53-0.9-0.77c0.19-0.43,0.39-0.82,0.53-1.22c0.3-0.87,0.22-1.76-0.01-2.63c-0.31-1.21-0.94-2.22-1.99-2.93
		c-0.76-0.51-1.58-0.93-2.44-1.27c-0.11-0.04-0.22-0.09-0.26,0.05c-0.02,0.06,0.07,0.17,0.13,0.21c0.4,0.27,0.8,0.52,1.2,0.78
		c1.6,1.03,2.36,2.88,1.95,4.74c-0.09,0.42-0.23,0.82-0.49,1.19c-1.43-1.21-2.84-2.41-4.25-3.62c0.37-0.43,0.72-0.84,1.08-1.26
		c-0.11-0.03-0.16-0.04-0.21-0.05c-0.64-0.08-1.29-0.16-1.93-0.22c-0.08-0.01-0.19,0.05-0.24,0.11c-0.48,0.55-0.95,1.1-1.42,1.65
		c-0.22,0.25-0.43,0.5-0.67,0.78c0.51,0.43,1,0.84,1.5,1.26c0.38-0.43,0.74-0.84,1.11-1.26c1.4,1.18,2.76,2.33,4.15,3.5
		c-0.54,0.46-1.15,0.66-1.81,0.66c-0.83,0-1.52-0.36-2.13-0.91c-0.34-0.31-0.51-0.3-0.83,0.02C11.1,16.79,10.9,16.98,10.71,17.17z"
		/>
</g>
</svg>
