<?xml version="1.0" encoding="utf-8"?>
<!-- Generator: Adobe Illustrator 25.0.0, SVG Export Plug-In . SVG Version: 6.00 Build 0)  -->
<svg version="1.1" id="Layer_1" xmlns="http://www.w3.org/2000/svg" xmlns:xlink="http://www.w3.org/1999/xlink" x="0px" y="0px"
	 viewBox="0 0 28.4 28.4" style="enable-background:new 0 0 28.4 28.4;" xml:space="preserve">
<style type="text/css">
	.st0{fill:#312783;}
</style>
<g>
	<path class="st0" d="M14.5,0.9c0,0.2,0,0.4,0,0.7c0.3,0,0.6,0,0.9,0c0,0.2,0,0.4,0,0.6c-0.3,0-0.6,0-0.9,0c0,0,0,0.1,0,0.1
		c0,0.4,0,0.8,0,1.1c0,0.1,0,0.1,0.1,0.1c0.5,0.6,1.1,1.2,1.6,1.8c0.5,0.5,0.9,1.1,1.4,1.6c0,0,0.1,0.1,0.2,0.1c0.4,0,0.7,0,1.1,0
		c0,0.4,0,0.8,0,1.1c-0.2,0-0.4,0-0.7,0c0,1.4,0,2.8,0,4.2c-0.2-0.1-0.5-0.2-0.7-0.4c-1-0.6-2.1-1.1-3.1-1.7c-0.1,0-0.1,0-0.2,0
		c-1.2,0.6-2.4,1.3-3.6,1.9c-0.1,0-0.1,0-0.2,0.1c0-1.4,0-2.8,0-4.2c-0.2,0-0.5,0-0.7,0c0-0.1,0-0.2,0-0.3c0-0.2,0-0.5,0-0.7
		C9.6,7,9.6,7,9.7,7c0.3,0,0.7,0,1,0c0.1,0,0.1,0,0.2-0.1c0.7-0.8,1.3-1.5,2-2.3c0.3-0.4,0.6-0.7,0.9-1.1c0,0,0.1-0.1,0.1-0.1
		c0-0.4,0-0.9,0-1.3c-0.3,0-0.6,0-0.9,0c0-0.2,0-0.4,0-0.6c0.3,0,0.6,0,0.9,0c0-0.2,0-0.4,0-0.7C14.1,0.9,14.3,0.9,14.5,0.9z
		 M15.2,8.4c0-0.6-0.4-1-1-1c-0.6,0-1,0.4-1,1c0,0.6,0.5,1,1,1C14.7,9.5,15.2,9,15.2,8.4z"/>
	<path class="st0" d="M5.8,27.5c0-0.4,0-0.8,0-1.2c0-0.1,0-0.1,0-0.2c5.6,0,11.1,0,16.7,0c0,0.5,0,0.9,0,1.4
		C17,27.5,11.4,27.5,5.8,27.5z"/>
	<path class="st0" d="M20.2,23.9c-1.4,0-2.7,0-4.1,0c0-0.1,0-0.1,0-0.2c0-1.6,0-3.1,0-4.7c0-0.1,0-0.1-0.1-0.2
		c-0.6-0.5-1.1-1-1.7-1.4c-0.1-0.1-0.1-0.1-0.2,0c-0.4,0.4-0.9,0.8-1.3,1.2c-0.1,0.1-0.2,0.2-0.3,0.3c-0.1,0.1-0.1,0.1-0.1,0.2
		c0,1.6,0,3.1,0,4.7c0,0.1,0,0.1,0,0.2c-1.4,0-2.7,0-4.1,0c0,0,0-0.1,0-0.1c0-3.1,0-6.3,0-9.4c0-0.1,0-0.1,0.1-0.2
		c1.9-1,3.8-2.1,5.7-3.1c0.1,0,0.1,0,0.2,0c1.2,0.6,2.4,1.3,3.6,1.9c0.7,0.4,1.4,0.8,2.2,1.2c0.1,0.1,0.1,0.1,0.1,0.2
		c0,3.1,0,6.2,0,9.4C20.2,23.8,20.2,23.8,20.2,23.9z M15.6,15c0-0.7-0.6-1.3-1.4-1.3c-0.8,0-1.4,0.6-1.4,1.3c0,0.7,0.6,1.3,1.4,1.3
		C15.1,16.3,15.6,15.6,15.6,15z"/>
	<path class="st0" d="M21.1,24.3c0,0.4,0,0.8,0,1.3c0,0.1,0,0.1,0,0.2c-4.6,0-9.3,0-13.9,0c0-0.5,0-0.9,0-1.4
		C11.9,24.3,16.5,24.3,21.1,24.3z"/>
</g>
</svg>
