<?xml version="1.0" encoding="utf-8"?>
<!-- Generator: Adobe Illustrator 25.0.0, SVG Export Plug-In . SVG Version: 6.00 Build 0)  -->
<svg version="1.1" id="Layer_1" xmlns="http://www.w3.org/2000/svg" xmlns:xlink="http://www.w3.org/1999/xlink" x="0px" y="0px"
	 viewBox="0 0 28.35 28.35" style="enable-background:new 0 0 28.35 28.35;" xml:space="preserve">
<style type="text/css">
	.st0{fill:#A4BDE4;}
	.st1{fill:#312783;}
</style>
<g>
	<rect x="0.5" y="0.5" class="st0" width="27.35" height="27.35"/>
	<path class="st1" d="M27.35,1v26.35H1V1H27.35 M28.35,0H0v28.35h28.35V0L28.35,0z"/>
</g>
<g>
	<path class="st1" d="M18.59,13.77c-0.13,0.27-0.23,0.47-0.38,0.77c0.96,0,1.83,0.18,2.58-0.04c1.04-0.32-0.83-0.57,3.07-0.32
		c0,0.51,0.04,1.04,0.04,1.48c0.22,0.04,0.38,0.07,0.55,0.1c0.02,0.18,0.04,0.36,0.05,0.53c0.32,0.08,0.62,0.15,0.93,0.23
		c0,0.05-0.01,0.11-0.01,0.16c-0.2,0.17-0.39,0.43-0.62,0.48c-0.44,0.1-0.36,0.39-0.36,0.68c0,1.39,0,2.78,0,4.23
		c0.68,0,1.33,0,2.01,0c0,0.29,0,0.51,0,0.79c-8.13,0-16.26,0-24.43,0c0-0.25,0-0.49,0-0.77c0.65,0,1.26,0,1.92,0
		c0-1.62,0-3.2,0-4.71c-0.4-0.23-0.76-0.45-1.13-0.66c0-0.06,0.01-0.11,0.01-0.17c0.26-0.09,0.52-0.18,0.84-0.29
		c0.01-0.11,0.03-0.29,0.05-0.5c0.14-0.05,0.29-0.09,0.48-0.15c0-0.33-0.02-0.67,0.01-1c0.01-0.12,0.17-0.3,0.26-0.31
		c0.82-0.02,1.71-0.21,2.45,0.04c1.11,0.38,2.19,0.03,3.43,0.26c-0.23-0.57-0.4-1.01-0.6-1.52c0.31-0.03,0.55-0.05,0.85-0.08
		c0-0.64,0.03-1.27-0.02-1.9c-0.02-0.24-0.23-0.47-0.36-0.7c-0.06-0.1-0.15-0.17-0.23-0.25c0.12-0.05,0.24-0.11,0.37-0.15
		c0.06-0.02,0.13-0.02,0.29-0.03c-0.08-0.23-0.14-0.43-0.23-0.69c0.12-0.04,0.27-0.1,0.44-0.16c0.15-1.4,0.94-2.29,2.34-2.7
		c-0.24-0.38-0.04-0.55,0.31-0.58c0.07-1.07,0.07-1.07-0.27-1.29c0.2-0.18,0.41-0.35,0.61-0.54c0.05-0.04,0.11-0.14,0.09-0.16
		c-0.41-0.71,0.23-1.08,0.23-1.61c0,0.53,0.23,0.47,0.38,1.03c0.02,0.06,0.02,0.14-0.01,0.19c-0.12,0.22-0.3,0.42,0.03,0.62
		c0.2,0.12,0.35,0.31,0.54,0.48c-0.6,0.23-0.19,0.79-0.33,1.24c0.26,0.11,0.72,0.1,0.33,0.59c1.42,0.39,2.28,1.26,2.46,2.73
		c0.17,0.05,0.34,0.1,0.49,0.15c-0.07,0.25-0.12,0.46-0.2,0.73c0.19,0,0.31-0.02,0.42,0.01c0.1,0.02,0.19,0.09,0.28,0.13
		c-0.05,0.08-0.13,0.16-0.16,0.25c-0.12,0.35-0.53,0.53-0.49,0.99c0.05,0.53,0.01,1.07,0.01,1.62c0.28,0.03,0.52,0.05,0.79,0.08
		 M20.87,16.43c-0.21-0.1-0.28-0.15-0.35-0.17c-2.02-0.75-4.05-1.5-6.08-2.23c-0.21-0.08-0.5-0.06-0.71,0.02
		c-1.97,0.7-3.93,1.43-5.89,2.15c-0.13,0.05-0.26,0.11-0.52,0.23C11.88,16.43,16.3,16.43,20.87,16.43z M15.17,21.51
		c0.31,0.09,0.46,0.04,0.46-0.3c-0.01-1.17-0.01-2.35,0-3.52c0-0.35-0.15-0.39-0.46-0.29C15.17,18.77,15.17,20.14,15.17,21.51z
		 M19.28,21.48c0.04,0.04,0.08,0.09,0.11,0.13c0.12-0.1,0.34-0.19,0.34-0.29c0.02-1.3,0.02-2.61,0.02-3.93c-0.18,0-0.32,0-0.48,0
		C19.28,18.78,19.28,20.13,19.28,21.48z M9.9,17.4c-0.33-0.09-0.49-0.04-0.48,0.31c0.01,1.15,0.01,2.31,0,3.46
		c0,0.38,0.15,0.46,0.48,0.33C9.9,20.13,9.9,18.78,9.9,17.4z M12.74,21.49c0.06,0.04,0.11,0.08,0.17,0.12
		c0.09-0.13,0.26-0.26,0.26-0.39c0.02-1.17,0.01-2.34,0.02-3.51c0-0.33-0.12-0.42-0.45-0.31C12.74,18.76,12.74,20.13,12.74,21.49z
		 M12.14,21.62c0.06-0.04,0.11-0.08,0.17-0.12c0-1.37,0-2.73,0-4.1c-0.32-0.11-0.45-0.02-0.45,0.3c0.01,1.17-0.01,2.35,0.01,3.52
		C11.87,21.36,12.04,21.49,12.14,21.62z M6.69,20.55c0-0.54,0.01-1.03,0-1.53c-0.01-0.33-0.22-0.58-0.53-0.52
		c-0.2,0.04-0.47,0.3-0.5,0.5c-0.07,0.5-0.02,1.02-0.02,1.56C6,20.55,6.31,20.55,6.69,20.55z M22.48,20.55
		c0-0.54,0.04-1.05-0.02-1.54c-0.03-0.2-0.3-0.36-0.46-0.54c-0.17,0.17-0.47,0.33-0.5,0.52c-0.07,0.5-0.02,1.02-0.02,1.55
		C21.83,20.55,22.12,20.55,22.48,20.55z M9.02,17.42c-0.06-0.04-0.12-0.08-0.18-0.12c-0.09,0.12-0.27,0.23-0.27,0.35
		c-0.02,1.21-0.02,2.42,0,3.62c0,0.09,0.16,0.19,0.24,0.28c0.07-0.09,0.2-0.18,0.2-0.27C9.02,20,9.02,18.71,9.02,17.42z
		 M16.01,17.41c0,1.3-0.01,2.57,0.01,3.84c0,0.1,0.14,0.2,0.22,0.3c0.07-0.1,0.2-0.21,0.2-0.31c0.02-1.19,0.01-2.38,0.02-3.56
		C16.46,17.37,16.34,17.29,16.01,17.41z M18.87,17.42c-0.06-0.04-0.12-0.08-0.17-0.12c-0.09,0.12-0.27,0.23-0.27,0.35
		c-0.02,1.21-0.02,2.41,0,3.62c0,0.1,0.16,0.19,0.24,0.28c0.07-0.09,0.19-0.18,0.19-0.28C18.87,19.99,18.87,18.71,18.87,17.42z
		 M14.57,13.02c0-0.35,0.04-0.66-0.02-0.95c-0.03-0.15-0.24-0.35-0.37-0.35c-0.13,0-0.34,0.21-0.37,0.35
		c-0.06,0.3-0.02,0.62-0.02,0.95C14.07,13.02,14.29,13.02,14.57,13.02z M14.43,5.76c0-0.54,0.03-0.68-0.22-0.77
		c-0.19,0-0.21,0.28-0.23,0.42C13.94,5.66,13.81,5.94,14.43,5.76z"/>
	<path class="st1" d="M4.32,12.32c-0.16-0.04-0.11-0.18-0.26-0.24c0.12-0.12,0.23-0.25,0.41-0.44c0-0.43,0.21-0.84,0.75-1.07
		c0.12-0.05,0.2-0.24,0.24-0.38c0.06-0.22,0.08-0.45,0.12-0.78c0.07,0.13,0.1,0.18,0.11,0.22c0.08,0.53,0.24,0.96,0.82,1.18
		c0.18,0.07,0.25,0.41,0.37,0.62c0.08,0.14,0.18,0.26,0.25,0.41c0.04,0.08,0.08,0.2,0.05,0.28c-0.03,0.07-0.01,0.18-0.1,0.18
		 M7.08,12.29c0,0.3-0.01,0.58,0,0.86c0.01,0.21-0.11,0.5,0.27,0.54c0.01,0,0.05,0.31-0.02,0.4c-0.07,0.1-0.26,0.15-0.4,0.16
		c-0.84,0.02-1.68,0.03-2.51,0c-0.19-0.01-0.45-0.12-0.54-0.26c-0.14-0.25,0.09-0.32,0.3-0.38c0.05-0.02,0.08-0.2,0.08-0.31
		c0.01-0.32,0-0.63,0-0.99 M5.18,13.63c0.4,0,0.64,0,1,0c-0.1-0.3-0.14-0.55-0.27-0.75c-0.05-0.07-0.39-0.08-0.44-0.01
		C5.34,13.07,5.29,13.32,5.18,13.63z"/>
	<path class="st1" d="M21.08,12.3c0.96,0,1.85,0,2.81,0c0,0.3-0.01,0.58,0,0.86c0.01,0.21-0.1,0.49,0.27,0.54
		c0.05,0.01,0.12,0.19,0.09,0.24c-0.05,0.11-0.16,0.24-0.26,0.26c-0.23,0.05-0.47,0.03-0.7,0.04c-0.7,0-1.41,0.02-2.11-0.02
		c-0.18-0.01-0.34-0.18-0.52-0.27c0.1-0.13,0.21-0.27,0.31-0.4c0.03,0.01,0.07,0.03,0.1,0.04C21.08,13.17,21.08,12.76,21.08,12.3z
		 M22.9,13.65c-0.12-0.32-0.18-0.58-0.32-0.8c-0.04-0.06-0.36-0.05-0.4,0.01c-0.12,0.23-0.17,0.49-0.26,0.79
		C22.28,13.65,22.51,13.65,22.9,13.65z"/>
	<path class="st1" d="M22.48,9.57c0.02,0.06,0.04,0.12,0.05,0.18c0.06,0.5,0.2,0.91,0.74,1.13c0.17,0.07,0.26,0.37,0.34,0.58
		c0.07,0.18-0.02,0.45,0.32,0.45c0.03,0,0.1,0.14,0.08,0.2c-0.02,0.08-0.11,0.19-0.17,0.19c-0.92,0.01-1.84,0.02-2.76,0
		c-0.05,0-0.11-0.19-0.16-0.29c0.4-0.15,0.27-0.59,0.46-0.85c0.06-0.08,0.11-0.2,0.19-0.23C22.26,10.72,22.32,10.15,22.48,9.57z"/>
	<path class="st1" d="M9.35,15.98c0.01,0.04,0.02,0.07,0.03,0.11c3.21,0,6.41,0,9.62,0c-0.84-0.39-1.68-0.69-2.53-1
		c-0.77-0.28-1.54-0.78-2.31-0.78c-0.79,0-1.58,0.49-2.36,0.77C10.97,15.38,10.16,15.68,9.35,15.98z"/>
	<path class="st1" d="M9.35,15.98c0.81-0.3,1.62-0.6,2.44-0.9c0.79-0.28,1.58-0.77,2.36-0.77c0.77,0,1.54,0.5,2.31,0.78
		c0.85,0.31,1.69,0.62,2.53,1c-3.21,0-6.41,0-9.62,0C9.36,16.06,9.36,16.02,9.35,15.98z"/>
</g>
</svg>
