<?xml version="1.0" encoding="utf-8"?>
<!-- Generator: Adobe Illustrator 25.0.0, SVG Export Plug-In . SVG Version: 6.00 Build 0)  -->
<svg version="1.1" id="Layer_1" xmlns="http://www.w3.org/2000/svg" xmlns:xlink="http://www.w3.org/1999/xlink" x="0px" y="0px"
	 viewBox="0 0 28.4 28.4" style="enable-background:new 0 0 28.4 28.4;" xml:space="preserve">
<style type="text/css">
	.st0{fill:#312783;}
</style>
<path class="st0" d="M15.7,0.4v2H18v2h-2.3v3.3c0,0.1,0,0.2,0.1,0.3c1.5,1.4,2.9,2.9,4.4,4.4c0,0.1,0.1,0.1,0.1,0.2
	c0,0.7-0.1,1.5,0,2.2c0,0.5,0.3,0.9,0.5,0.9l4.3,1.9l1.7,1c0.5,0.3,0.7,0.9,0.4,1.3c0,0,0,0,0,0.1c-0.4,0.5-1.1,0.6-1.6,0.3l0,0
	L25.1,20v6.5H18v-1.9c0-0.6-0.2-1.2-0.6-1.7c-0.6-0.7-1.5-1.2-2.4-1.3c-1.6-0.2-3.2,0.6-3.7,2C11.1,24,11,24.5,11,24.9v1.7H4.1v-6.4
	l-0.6,0.3C3,20.7,2.3,20.6,2,20.1c-0.1-0.2-0.2-0.4-0.2-0.5c0-0.4,0.2-0.7,0.6-0.8l2-1l4.2-2.1c0.1,0,0.2-0.1,0.2-0.2l0,0v-2.8
	c0-0.1,0-0.2,0.1-0.3l3.7-3.7c0.2-0.2,0.5-0.5,0.7-0.7l0.1-0.1V4.5c0,0,0,0,0-0.1H11v-2h2.3v-2C13.3,0.4,15.7,0.4,15.7,0.4z
	 M14.3,13.4c-1.3,0-2.3,0.5-2.5,1.7s0.6,2.2,1.8,2.5c0.3,0,1.2,0,1.5,0c1.1-0.2,1.9-0.5,2.1-1.7c0.2-1.1-0.5-2.2-1.7-2.5
	C15,13.4,14.6,13.4,14.3,13.4z"/>
</svg>
