<?xml version="1.0" encoding="utf-8"?>
<!-- Generator: Adobe Illustrator 25.0.0, SVG Export Plug-In . SVG Version: 6.00 Build 0)  -->
<svg version="1.1" id="Layer_1" xmlns="http://www.w3.org/2000/svg" xmlns:xlink="http://www.w3.org/1999/xlink" x="0px" y="0px"
	 viewBox="0 0 28.35 28.35" style="enable-background:new 0 0 28.35 28.35;" xml:space="preserve">
<style type="text/css">
	.st0{fill:#A4BDE4;}
	.st1{fill:#312783;}
</style>
<g>
	<rect x="0.5" y="0.5" class="st0" width="27.35" height="27.35"/>
	<path class="st1" d="M27.35,1v26.35H1V1H27.35 M28.35,0H0v28.35h28.35V0L28.35,0z"/>
</g>
<g>
	<path class="st1" d="M26.61,18.42c-0.61,0.04-1.23,0.09-1.84,0.13c-0.24,0.01-0.49,0-0.79,0c0,1.09,0,2.12,0,3.19
		c-0.77,0-1.48,0-2.23,0c-0.03-0.19-0.06-0.4-0.1-0.65c-0.52,0-1.02,0-1.57,0c-0.03,0.21-0.06,0.41-0.09,0.66c-0.85,0-1.71,0-2.64,0
		c0-0.77,0-1.52,0-2.27c-0.01-1.45-0.63-2.1-2-2.11c-0.68,0-1.37,0-2.05,0c-1.13,0.01-1.75,0.65-1.76,1.85
		c-0.01,0.8-0.01,1.6-0.02,2.4c0,0.04-0.03,0.07-0.07,0.14c-0.64,0-1.29,0-1.97,0c-0.03-0.23-0.05-0.44-0.07-0.68
		c-0.53,0-1.04,0-1.56,0c-0.03,0.22-0.05,0.41-0.08,0.66c-0.7,0-1.42,0-2.21,0c0-1.03,0-2.07,0-3.19c-0.76,0-1.44,0.02-2.12-0.01
		c-0.17-0.01-0.33-0.17-0.5-0.26c0.09-0.17,0.14-0.4,0.27-0.5c2.03-1.46,4.06-2.91,6.1-4.35c0.17-0.12,0.42-0.18,0.63-0.18
		c3.19-0.01,6.39-0.01,9.58,0c0.27,0,0.57,0.11,0.79,0.27c2.11,1.45,4.2,2.92,6.3,4.38C26.61,18.08,26.61,18.25,26.61,18.42z
		 M20.07,19.17c0,0.37,0,0.7,0,1.07c0.55,0,1.05,0,1.55,0C21.83,19.08,21.63,18.94,20.07,19.17z M9.41,19.16
		c-1.62-0.18-1.74-0.09-1.54,1.08c0.5,0,1,0,1.54,0C9.41,19.86,9.41,19.52,9.41,19.16z"/>
	<path class="st1" d="M18.91,12.88c-0.81,0-1.51,0-2.23,0c-0.02-0.27-0.04-0.5-0.06-0.77c-0.53,0-1.06,0-1.6,0
		c-0.02,0.25-0.04,0.48-0.07,0.76c-0.22,0-0.41,0-0.62,0c-0.02-0.28-0.04-0.51-0.06-0.77c-0.53,0-1.04,0-1.59,0
		c-0.02,0.25-0.03,0.48-0.05,0.76c-0.72,0-1.43,0-2.2,0c0-0.94,0-1.88,0-2.89c-0.7,0-1.33,0.02-1.97-0.01
		C8.25,9.95,8.04,9.78,7.83,9.69c0.12-0.2,0.19-0.47,0.35-0.59c1.98-1.52,3.99-3.02,5.97-4.54c0.36-0.28,0.63-0.28,0.99,0
		c2,1.5,4.01,2.98,6.01,4.48c0.17,0.13,0.23,0.4,0.34,0.61c-0.2,0.11-0.4,0.29-0.61,0.3c-0.64,0.04-1.28,0.01-1.98,0.01
		C18.91,10.95,18.91,11.89,18.91,12.88z M14.26,11.38c0-0.3,0-0.56,0-0.82c-0.08-0.02-0.12-0.04-0.16-0.05
		c-0.25-0.01-0.5-0.01-0.75-0.01c-0.72,0-0.74,0.04-0.63,0.87C13.23,11.38,13.74,11.38,14.26,11.38z M15.04,10.51
		c0,0.33,0,0.6,0,0.87c0.56,0,1.06,0,1.56,0c0.09-0.85,0.08-0.86-0.65-0.87C15.65,10.51,15.35,10.51,15.04,10.51z"/>
	<path class="st1" d="M14.22,22.15c3.28,0,6.55,0,9.83,0c0.82,0,0.82,0,0.82,0.84c0,1,0,1-0.97,1c-6.55,0-13.1,0-19.66-0.01
		c-0.28,0-0.77-0.1-0.79-0.23c-0.08-0.47-0.04-0.98,0.03-1.46c0.01-0.08,0.4-0.14,0.61-0.15C7.47,22.15,10.85,22.15,14.22,22.15z"/>
	<path class="st1" d="M10.04,10.59c0,0.85,0,1.55,0,2.11c-0.62,0.38-1.18,0.69-1.69,1.05c-1.3,0.91-2.58,1.85-3.94,2.84
		c-0.04-0.28-0.07-0.47-0.11-0.73c-0.69,0-1.37,0.02-2.05-0.01c-0.17-0.01-0.34-0.16-0.51-0.25c0.1-0.17,0.16-0.4,0.3-0.51
		c2.01-1.44,4-2.91,6.07-4.26C8.59,10.53,9.34,10.66,10.04,10.59z"/>
	<path class="st1" d="M14.24,17.63c0,1.42,0,2.75,0,4.12c-0.82,0-1.62,0-2.46,0c0-1-0.04-1.99,0.01-2.97
		c0.04-0.64,0.55-1.1,1.16-1.15C13.37,17.6,13.78,17.63,14.24,17.63z"/>
	<path class="st1" d="M17.02,21.76c-0.82,0-1.58,0-2.39,0c0-1.36,0-2.72,0-4.11c0.45,0,0.89-0.04,1.31,0.01
		c0.6,0.08,1.06,0.68,1.08,1.38C17.03,19.92,17.02,20.8,17.02,21.76z"/>
	<path class="st1" d="M23.61,15.45c-1.61-0.86-1.82-1.24-1.69-2.97c0.58,0,1.17,0,1.86,0c-0.06,0.48-0.13,0.95-0.16,1.42
		C23.59,14.39,23.61,14.88,23.61,15.45z"/>
	<path class="st1" d="M5.15,21.77c-0.26,0-0.48,0-0.76,0c0-0.97,0-1.92,0-2.91c0.24,0,0.47,0,0.76,0
		C5.15,19.79,5.15,20.75,5.15,21.77z"/>
</g>
</svg>
