<svg id="Layer_1" data-name="Layer 1" xmlns="http://www.w3.org/2000/svg" viewBox="0 0 28.35 28.35"><defs><style>.cls-1{fill:#a4bde4;}.cls-2{fill:#312783;}</style></defs><rect class="cls-1" x="0.5" y="0.5" width="27.35" height="27.35"/><path class="cls-2" d="M27.35,1V27.35H1V1H27.35m1-1H0V28.35H28.35V0Z" transform="translate(0 0)"/><path class="cls-2" d="M15,1.77v1.9h2V5.58H15V8.69a.38.38,0,0,0,.1.27Q17,11,18.89,13.15a.37.37,0,0,1,.06.21c0,.71,0,1.42,0,2.12a.23.23,0,0,0,.13.23l4,2.51,1.49.93a.93.93,0,0,1,.3,1.33,1,1,0,0,1-1.4.26L23,20.41v6.16H17V24.75a2.76,2.76,0,0,0-.5-1.64,3,3,0,0,0-2.11-1.27,3,3,0,0,0-3.24,1.93A3.41,3.41,0,0,0,11,25v1.58H5V20.47l-.48.26A1,1,0,0,1,3,19.88a.89.89,0,0,1,.48-.79l1.75-.94L8.85,16.2A.16.16,0,0,0,9,16V13.35a.31.31,0,0,1,.1-.24l3.2-3.52c.21-.23.43-.45.63-.69A.2.2,0,0,0,13,8.77V5.65a.26.26,0,0,0,0-.07H11V3.68h2V1.77ZM14,14.12a2,2,0,1,0,0,3.93,2,2,0,1,0,0-3.93Z" transform="translate(0 0)"/></svg>