<?xml version="1.0" encoding="utf-8"?>
<!-- Generator: Adobe Illustrator 25.0.0, SVG Export Plug-In . SVG Version: 6.00 Build 0)  -->
<svg version="1.1" id="Layer_1" xmlns="http://www.w3.org/2000/svg" xmlns:xlink="http://www.w3.org/1999/xlink" x="0px" y="0px"
	 viewBox="0 0 28.35 28.35" style="enable-background:new 0 0 28.35 28.35;" xml:space="preserve">
<style type="text/css">
	.st0{fill:#F6AF95;}
	.st1{fill:#E30613;}
</style>
<g>
	<rect x="0.5" y="0.5" class="st0" width="27.35" height="27.35"/>
	<path class="st1" d="M27.35,1v26.35H1V1H27.35 M28.35,0H0v28.35h28.35V0L28.35,0z"/>
</g>
<g>
	<path class="st1" d="M2.05,24.4c0.33,0,0.67,0,1-0.01c0.04,0,0.08,0,0.13,0c0-0.46,0-0.91,0-1.37c0.4,0,0.78,0,1.17,0
		c0-0.46,0-0.91,0-1.36c6.53,0,13.06,0,19.6,0c0,0.45,0,0.9,0,1.36c0.39,0,0.78,0,1.17,0c0,0.46,0,0.91,0,1.37c0.38,0,0.76,0,1.14,0
		c0,0.46,0,0.91,0,1.37c-0.05,0-0.09,0-0.14,0c-7.98,0-15.96,0-23.94,0c-0.04,0-0.09,0-0.13,0C2.05,25.31,2.05,24.85,2.05,24.4z"/>
	<path class="st1" d="M14.18,2.57c0.08,0.04,0.16,0.09,0.25,0.13c3.26,1.54,6.53,3.08,9.79,4.63c0.23,0.11,0.45,0.21,0.68,0.32
		c0.06,0.03,0.08,0.05,0.08,0.12c0,0.25,0,0.5,0,0.75c-7.21,0-14.42,0-21.64,0c0-0.05,0-0.1,0-0.16c0-0.2,0-0.39,0-0.59
		c0-0.07,0.02-0.1,0.08-0.13C4.56,7.1,5.7,6.56,6.84,6.02c2.42-1.14,4.83-2.28,7.25-3.42c0.02-0.01,0.04-0.02,0.06-0.03
		C14.16,2.57,14.17,2.57,14.18,2.57z"/>
	<path class="st1" d="M22.89,8.9c0,0.46,0,0.9,0,1.36c-5.82,0-11.64,0-17.46,0c0-0.45,0-0.9,0-1.36C11.25,8.9,17.07,8.9,22.89,8.9z"
		/>
	<path class="st1" d="M22.36,21.27c-0.85,0-1.69,0-2.54,0c0.09-3.54,0.18-7.08,0.27-10.62c0.66,0,1.31,0,1.98,0
		C22.16,14.19,22.26,17.73,22.36,21.27z"/>
	<path class="st1" d="M10.58,21.27c0.09-3.54,0.18-7.07,0.27-10.61c0.66,0,1.31,0,1.98,0c0.1,3.53,0.2,7.07,0.3,10.61
		C12.27,21.27,11.43,21.27,10.58,21.27z"/>
	<path class="st1" d="M17.74,21.27c-0.85,0-1.69,0-2.54,0c0.09-3.54,0.18-7.07,0.26-10.61c0.66,0,1.31,0,1.98,0
		C17.54,14.19,17.64,17.73,17.74,21.27z"/>
	<path class="st1" d="M6.22,10.65c0.66,0,1.31,0,1.98,0c0.1,3.54,0.2,7.07,0.3,10.61c-0.85,0-1.69,0-2.54,0
		C6.04,17.73,6.13,14.19,6.22,10.65z"/>
</g>
</svg>
