<?xml version="1.0" encoding="utf-8"?>
<!-- Generator: Adobe Illustrator 25.0.0, SVG Export Plug-In . SVG Version: 6.00 Build 0)  -->
<svg version="1.1" id="Layer_1" xmlns="http://www.w3.org/2000/svg" xmlns:xlink="http://www.w3.org/1999/xlink" x="0px" y="0px"
	 viewBox="0 0 28.4 28.4" style="enable-background:new 0 0 28.4 28.4;" xml:space="preserve">
<style type="text/css">
	.st0{fill:#E7412B;}
</style>
<g>
	<path class="st0" d="M1.4,8.8c1.6,0,3.2,0,4.8,0C6.1,9.4,6.2,9.5,7,9.6c0,0.4,0,0.8,0,1.2s0,0.4,0.4,0.6c0.1,0,0.1,0.1,0.1,0.2
		c0,0.2,0,0.5,0,0.7c0,3.1,0,6.2,0,9.3c0,0.1,0,0.2,0,0.3C7.1,22,7,22.2,7,22.5c0,0.4,0,0.8,0,1.3c-1.9,0-3.7,0-5.6,0
		C1.4,18.8,1.4,13.8,1.4,8.8z M5.4,19.8L5.4,19.8c0-0.5,0-1,0-1.5c0-0.3-0.2-0.5-0.5-0.5c-0.6,0-1.2,0-1.8,0c-0.1,0-0.2,0-0.3,0.1
		c-0.2,0.1-0.2,0.3-0.2,0.5c0,0.9,0,1.8,0,2.6c0,0.4,0.3,0.7,0.7,0.7c0.5,0,1,0,1.5,0c0.4,0,0.6-0.2,0.6-0.6
		C5.4,20.8,5.4,20.3,5.4,19.8z M5.4,13.5L5.4,13.5c0-0.5,0-1,0-1.4c0-0.3-0.2-0.5-0.5-0.5c-0.6,0-1.2,0-1.8,0
		c-0.4,0-0.5,0.1-0.5,0.5c0,1,0,1.9,0,2.9c0,0.3,0.2,0.5,0.5,0.5c0.6,0,1.2,0,1.9,0c0.3,0,0.5-0.2,0.5-0.5C5.4,14.5,5.4,14,5.4,13.5
		z"/>
	<path class="st0" d="M21.3,23.8c0-0.4,0-0.8,0-1.2c0-0.4-0.1-0.5-0.5-0.6c0-0.1,0-0.2,0-0.3c0-3.3,0-6.6,0-9.9c0-0.2,0-0.4,0.3-0.4
		c0.1,0,0.2-0.3,0.2-0.4c0-0.5,0-0.9,0-1.3c0.2,0,0.5,0,0.7-0.2c0.1-0.1,0.1-0.4,0.2-0.7c1.5,0,3.1,0,4.7,0c0,5,0,10,0,15
		C25.1,23.8,23.2,23.8,21.3,23.8z M23,19.9c0,0.4,0,0.9,0,1.3c0,0.5,0.2,0.7,0.7,0.7s1,0,1.5,0c0.3,0,0.6-0.2,0.6-0.6
		c0-1,0-1.9,0-2.9c0-0.3-0.2-0.5-0.6-0.5c-0.6,0-1.2,0-1.7,0c-0.3,0-0.5,0.2-0.5,0.5C23,18.9,23,19.4,23,19.9z M23,13.5L23,13.5
		c0,0.5,0,1,0,1.5c0,0.3,0.2,0.5,0.5,0.5c0.6,0,1.2,0,1.8,0c0.1,0,0.3-0.1,0.4-0.2c0.1-0.1,0.1-0.3,0.1-0.4c0-0.9,0-1.8,0-2.6
		c0-0.6-0.2-0.6-0.6-0.6c-0.6,0-1.1,0-1.7,0c-0.4,0-0.5,0.1-0.5,0.5C23,12.5,23,13,23,13.5z"/>
	<path class="st0" d="M18.2,22c-0.4,0-0.5,0.2-0.5,0.6s0,0.8,0,1.2c-0.2,0-0.4,0-0.6,0c0-0.1,0-0.2,0-0.3c0-3,0-6.1,0-9.1
		c0-0.1,0-0.2,0-0.3c0-0.4-0.2-0.5-0.5-0.5c-1.6,0-3.1,0-4.7,0c-0.4,0-0.5,0.1-0.5,0.5s0,0.8,0,1.2c0,2.7,0,5.4,0,8.1
		c0,0.1,0,0.2,0,0.3c-0.2,0-0.4,0-0.6,0c0-0.4,0-0.8,0-1.2c0-0.4-0.2-0.6-0.5-0.6c0-3.5,0-7,0-10.5c0.4-0.1,0.5-0.2,0.5-0.6
		c0-0.4,0-0.8,0-1.2c2.3,0,4.6,0,6.9,0c0,0.4,0,0.8,0,1.2s0.1,0.5,0.5,0.6C18.2,14.9,18.2,18.5,18.2,22z"/>
	<path class="st0" d="M27.8,24.9c0,0.6,0,1.1,0,1.7c-9.1,0-18.2,0-27.3,0c0-0.6,0-1.1,0-1.7C9.6,24.9,18.7,24.9,27.8,24.9z"/>
	<path class="st0" d="M20.6,8.5c-4.3,0-8.5,0-12.8,0C7.9,8.3,8,8.2,8.1,8.1c0.7-0.7,1.4-1.4,2.1-2.2c0.6-0.6,1.2-1.3,1.8-2
		c0.5-0.5,0.9-1,1.4-1.4c0.2-0.2,0.4-0.4,0.6-0.6c0.1-0.1,0.2-0.1,0.4,0c0.7,0.8,1.4,1.5,2.2,2.3C17.4,5,18.2,5.9,19,6.8
		c0.5,0.5,1,1,1.5,1.5C20.5,8.4,20.5,8.4,20.6,8.5z"/>
	<path class="st0" d="M12.2,14.8c1.3,0,2.7,0,4,0c0,3,0,6,0,9.1c-1.3,0-2.7,0-4,0C12.2,20.8,12.2,17.8,12.2,14.8z"/>
	<path class="st0" d="M11.5,3.2C11,3.6,10.7,4,10.3,4.4c-0.5,0.5-1,1.1-1.6,1.7C8.3,6.5,7.8,7,7.4,7.5C7.2,7.7,7,7.7,6.7,7.7
		c-1.6,0-3.2,0-4.8,0c-0.1,0-0.2,0-0.3,0C1.8,7.4,1.9,7,2,6.7c0.4-1.1,0.7-2.2,1.1-3.2c0.1-0.2,0.1-0.3,0.4-0.3c2.5,0,5.1,0,7.7,0
		C11.2,3.2,11.3,3.2,11.5,3.2z"/>
	<path class="st0" d="M17,3.2c1.3,0,2.5,0,3.8,0c1.4,0,2.8,0,4.2,0c0.2,0,0.3,0,0.3,0.2c0.5,1.4,0.9,2.8,1.4,4.2v0.1
		c-0.7,0-1.4,0-2.1,0c-1.1,0-2.2,0-3.2,0c-0.2,0-0.3,0-0.4-0.2c-0.6-0.6-1.2-1.2-1.8-1.9c-0.5-0.6-1.1-1.2-1.6-1.7
		C17.4,3.7,17.2,3.5,17,3.2C16.9,3.2,17,3.2,17,3.2z"/>
	<path class="st0" d="M8.4,11.4c0.2,0,0.4,0,0.6,0c0.2,0,0.3,0.1,0.3,0.3c0,0.5,0,0.9,0,1.4c0,2.9,0,5.8,0,8.7c0,0.1,0,0.2,0,0.3
		c-0.3,0-0.6,0-0.9,0C8.4,18.5,8.4,15,8.4,11.4z"/>
	<path class="st0" d="M19.9,22c-0.3,0-0.6,0-0.9,0c0-0.1,0-0.1,0-0.2c0-3.4,0-6.7,0-10.1c0-0.3,0.1-0.4,0.3-0.3c0.2,0,0.4,0,0.6,0
		C19.9,14.9,19.9,18.4,19.9,22z"/>
	<path class="st0" d="M9.8,10.4c-0.7,0-1.3,0-1.9,0c0-0.3,0-0.5,0-0.8c0.6,0,1.3,0,1.9,0C9.8,9.8,9.8,10.1,9.8,10.4z"/>
	<path class="st0" d="M18.5,10.3c0-0.3,0-0.5,0-0.8c0.7,0,1.3,0,2,0c0,0.3,0,0.5,0,0.8C19.8,10.3,19.2,10.3,18.5,10.3z"/>
	<path class="st0" d="M7.9,23.1c0.7,0,1.3,0,2,0c0,0.3,0,0.5,0,0.8c-0.7,0-1.3,0-2,0C7.9,23.6,7.9,23.3,7.9,23.1z"/>
	<path class="st0" d="M20.5,23.1c0,0.3,0,0.5,0,0.8c-0.7,0-1.3,0-2,0c0-0.3,0-0.5,0-0.8C19.2,23.1,19.8,23.1,20.5,23.1z"/>
</g>
</svg>
