<?xml version="1.0" encoding="utf-8"?>
<!-- Generator: Adobe Illustrator 25.0.0, SVG Export Plug-In . SVG Version: 6.00 Build 0)  -->
<svg version="1.1" id="Layer_1" xmlns="http://www.w3.org/2000/svg" xmlns:xlink="http://www.w3.org/1999/xlink" x="0px" y="0px"
	 viewBox="0 0 28.35 28.35" style="enable-background:new 0 0 28.35 28.35;" xml:space="preserve">
<style type="text/css">
	.st0{fill:#F6AF95;}
	.st1{fill:#E30613;}
</style>
<g>
	<rect x="0.5" y="0.5" class="st0" width="27.35" height="27.35"/>
	<path class="st1" d="M27.35,1v26.35H1V1H27.35 M28.35,0H0v28.35h28.35V0L28.35,0z"/>
</g>
<g>
	<path class="st1" d="M4.67,24.22c-0.01-1.17,0.61-1.99,1.43-2.68c1.55-1.3,3.43-1.87,5.39-2.2c0.38-0.07,0.77-0.11,1.18-0.17
		c0-2.9,0-5.79,0-8.76c-1.01,0-1.97-0.02-2.94,0.01C9.25,10.43,9.08,10.28,9.1,9.8c0.03-0.77,0-1.54,0-2.36c1.21,0,2.35,0,3.56,0
		c0-1.17,0-2.29,0-3.46c1.01,0,1.95,0,2.97,0c0,1.12,0,2.24,0,3.41c1.22,0,2.36,0,3.55,0c0,1.01,0,1.96,0,3.01c-1.16,0-2.31,0-3.5,0
		c0,2.97,0,5.84,0,8.61c1.47,0.4,2.93,0.67,4.29,1.22c0.99,0.39,1.88,1.08,2.72,1.75c0.65,0.52,1,1.3,0.98,2.23
		C17.37,24.22,11.06,24.22,4.67,24.22z"/>
</g>
</svg>
