<?xml version="1.0" encoding="utf-8"?>
<!-- Generator: Adobe Illustrator 25.0.0, SVG Export Plug-In . SVG Version: 6.00 Build 0)  -->
<svg version="1.1" id="Layer_1" xmlns="http://www.w3.org/2000/svg" xmlns:xlink="http://www.w3.org/1999/xlink" x="0px" y="0px"
	 viewBox="0 0 28.4 28.4" style="enable-background:new 0 0 28.4 28.4;" xml:space="preserve">
<style type="text/css">
	.st0{fill:#E7412B;}
</style>
<g>
	<path class="st0" d="M1.2,25.8c0-0.4,0-0.8,0-1.2c0.4,0,0.7-0.1,1.1-0.1c0-6.5,0-12.9,0-19.4C2,5.1,1.6,5.1,1.2,5
		c0-0.4,0-0.7,0-1.1c8.6,0,17.3,0,25.9,0c0,0.3,0,0.7,0,1.1c-0.4,0-0.7,0-1.1,0.1c0,6.5,0,12.9,0,19.4c0.3,0,0.7,0,1.1,0.1
		c0,0.4,0,0.8,0,1.2C18.5,25.8,9.9,25.8,1.2,25.8z M22.3,5.1c-5.4,0-10.8,0-16.2,0c0,6.5,0,12.9,0,19.4c5.4,0,10.8,0,16.2,0
		C22.3,18,22.3,11.6,22.3,5.1z"/>
	<path class="st0" d="M27.1,3.9c-8.7,0-17.3,0-25.9,0C1,3.4,1.4,3.3,1.7,3.3c3.5-0.8,7-1.4,10.5-2.3c1.9-0.5,3.6,0,5.4,0.3
		c3,0.6,6,1.3,9,2C27,3.3,27.4,3.4,27.1,3.9z"/>
	<path class="st0" d="M0.4,27.4c0-0.6,0-1.1,0-1.6c9.2,0,18.4,0,27.6,0c0,0.5,0,1,0,1.6C18.8,27.4,9.6,27.4,0.4,27.4z"/>
	<path class="st0" d="M11.1,8.6c1.7,0.2,3.4,0.5,5,0.4c1.5,0,3.1-0.4,4.7-0.7c0.1,2.5-0.2,5-0.8,7.4c-0.7,2.6-2.1,4.6-4.3,6.1
		c-1.2,0.8-1.8,0.9-2.9-0.1c-0.8-0.6-1.5-1.3-2.2-2c-0.4-0.7-0.8-1.3-1.2-2c-0.3-0.7-0.5-1.3-0.8-2c-0.1-0.9-0.3-1.7-0.4-2.6
		c0-1.6-0.1-3.3-0.2-5C9,8.3,10,8.4,11.1,8.6z M11.6,17.7c1.4,3.1,4.4,3,5.6,0C15.8,17.7,13,17.7,11.6,17.7z M13.4,13
		c-1.4-2-2.6-2-3.5,0.1C11,13.1,12.1,13.1,13.4,13z M18.8,13.4c0-0.1,0-0.2,0-0.3c-0.7-2-1.9-1.8-3.6,0
		C16.6,13.2,17.8,13.3,18.8,13.4z"/>
	<path class="st0" d="M14.2,14.4"/>
	<path class="st0" d="M16.6,14.4"/>
</g>
</svg>
