<?xml version="1.0" encoding="utf-8"?>
<!-- Generator: Adobe Illustrator 25.0.0, SVG Export Plug-In . SVG Version: 6.00 Build 0)  -->
<svg version="1.1" id="Layer_1" xmlns="http://www.w3.org/2000/svg" xmlns:xlink="http://www.w3.org/1999/xlink" x="0px" y="0px"
	 viewBox="0 0 28.35 28.35" style="enable-background:new 0 0 28.35 28.35;" xml:space="preserve">
<style type="text/css">
	.st0{fill:#F6AF95;}
	.st1{fill:#E30613;}
</style>
<g>
	<rect x="0.5" y="0.5" class="st0" width="27.35" height="27.35"/>
	<path class="st1" d="M27.35,1v26.35H1V1H27.35 M28.35,0H0v28.35h28.35V0L28.35,0z"/>
</g>
<g>
	<path class="st1" d="M3.82,10.17c1.3,0,2.58,0,3.86,0c-0.05,0.51,0.01,0.57,0.68,0.66c0,0.33,0,0.67,0,1.01
		c0,0.33,0.03,0.36,0.34,0.5c0.05,0.02,0.08,0.11,0.09,0.17c0.01,0.2,0,0.4,0,0.61c0,2.54,0,5.09,0,7.63c0,0.08,0,0.16,0,0.23
		c-0.33,0.05-0.43,0.16-0.43,0.48c0,0.34,0,0.69,0,1.05c-1.52,0-3.02,0-4.53,0C3.82,18.41,3.82,14.3,3.82,10.17z M7.02,19.25
		L7.02,19.25c0-0.4,0-0.8,0-1.19c0-0.23-0.18-0.39-0.41-0.39c-0.49,0-0.98,0-1.47,0c-0.08,0-0.15,0.04-0.22,0.08
		c-0.19,0.1-0.18,0.28-0.19,0.45c-0.01,0.72,0.01,1.45-0.01,2.17c-0.01,0.34,0.21,0.55,0.56,0.54c0.41-0.01,0.82,0.01,1.24-0.01
		c0.35-0.01,0.52-0.17,0.51-0.5C7.01,20.02,7.02,19.64,7.02,19.25z M7.02,14.05L7.02,14.05c0-0.39,0-0.78,0-1.17
		c0-0.26-0.18-0.44-0.42-0.43c-0.48,0.02-0.95,0.01-1.43,0c-0.32-0.01-0.42,0.08-0.44,0.4c-0.04,0.79-0.02,1.59-0.01,2.38
		c0,0.26,0.18,0.43,0.39,0.43c0.5,0,1.01,0.01,1.51-0.01c0.25-0.01,0.38-0.17,0.39-0.41C7.02,14.85,7.02,14.45,7.02,14.05z"/>
	<path class="st1" d="M19.98,22.51c0-0.35,0-0.68,0-1.02c0-0.35-0.08-0.45-0.43-0.51c0-0.07,0-0.14,0-0.21c0-2.71,0-5.42,0-8.13
		c0-0.16-0.02-0.3,0.22-0.34c0.09-0.01,0.19-0.23,0.2-0.36c0.03-0.37,0.01-0.73,0.01-1.09c0.2-0.04,0.43-0.02,0.56-0.13
		c0.12-0.1,0.12-0.34,0.18-0.54c1.21,0,2.5,0,3.8,0c0,4.1,0,8.21,0,12.33C23.01,22.51,21.51,22.51,19.98,22.51z M21.32,19.26
		c0,0.36,0.01,0.72,0,1.08c-0.02,0.38,0.16,0.56,0.57,0.56s0.82,0,1.23,0c0.28,0,0.5-0.17,0.5-0.46c0-0.79,0.01-1.57,0-2.36
		c0-0.28-0.18-0.42-0.45-0.42c-0.47,0-0.94,0-1.41,0c-0.28,0-0.44,0.15-0.44,0.43C21.31,18.49,21.32,18.88,21.32,19.26z
		 M21.32,14.02L21.32,14.02c0,0.4,0,0.81,0,1.21c0,0.27,0.16,0.42,0.42,0.43c0.48,0.01,0.97,0.01,1.45-0.01
		c0.11,0,0.24-0.08,0.31-0.16c0.07-0.09,0.11-0.23,0.11-0.36c0.01-0.72,0.02-1.44,0-2.16c-0.01-0.49-0.18-0.53-0.51-0.52
		c-0.45,0.01-0.91,0-1.36,0c-0.3,0-0.42,0.12-0.42,0.41C21.32,13.26,21.32,13.64,21.32,14.02z"/>
	<path class="st1" d="M17.42,21c-0.29,0.03-0.42,0.19-0.43,0.52c-0.01,0.32,0,0.65,0,0.99c-0.15,0-0.3,0-0.48,0
		c0-0.08,0-0.16,0-0.24c0-2.48,0-4.96,0-7.44c0-0.07,0-0.14,0-0.22c-0.02-0.31-0.13-0.41-0.43-0.41c-1.27,0-2.54,0-3.81,0
		c-0.31,0-0.43,0.12-0.43,0.43c-0.01,0.33,0,0.67,0,1c0,2.21,0,4.42,0,6.64c0,0.08,0,0.16,0,0.25c-0.16,0-0.31,0-0.48,0
		c0-0.34,0-0.68,0-1.02c-0.01-0.31-0.13-0.46-0.42-0.51c0-2.87,0-5.75,0-8.62c0.34-0.07,0.42-0.17,0.43-0.52c0-0.34,0-0.68,0-1.02
		c1.89,0,3.76,0,5.64,0c0,0.35,0,0.69,0,1.02c0.01,0.34,0.1,0.45,0.43,0.51C17.42,15.23,17.42,18.11,17.42,21z"/>
	<path class="st1" d="M25.26,23.41c0,0.47,0,0.92,0,1.39c-7.39,0-14.78,0-22.18,0c0-0.46,0-0.92,0-1.39
		C10.47,23.41,17.85,23.41,25.26,23.41z"/>
	<path class="st1" d="M19.36,9.95c-3.46,0-6.91,0-10.4,0c0.11-0.13,0.2-0.25,0.3-0.36C9.82,9,10.39,8.41,10.95,7.81
		c0.5-0.53,0.98-1.07,1.48-1.61c0.37-0.4,0.76-0.79,1.13-1.18c0.16-0.17,0.31-0.35,0.46-0.53c0.1-0.12,0.2-0.12,0.3-0.01
		c0.58,0.63,1.17,1.25,1.75,1.88c0.68,0.73,1.34,1.48,2.02,2.21c0.39,0.42,0.8,0.83,1.19,1.24C19.31,9.85,19.33,9.89,19.36,9.95z"/>
	<path class="st1" d="M12.54,15.08c1.09,0,2.18,0,3.27,0c0,2.48,0,4.95,0,7.43c-1.08,0-2.17,0-3.27,0
		C12.54,20.04,12.54,17.57,12.54,15.08z"/>
	<path class="st1" d="M11.97,5.57c-0.34,0.36-0.63,0.67-0.91,0.98c-0.44,0.47-0.87,0.95-1.31,1.42C9.39,8.34,9.01,8.69,8.69,9.1
		C8.52,9.31,8.35,9.31,8.13,9.31c-1.29,0-2.58,0-3.87,0c-0.08,0-0.16,0-0.27,0c0.1-0.3,0.19-0.57,0.28-0.85
		c0.3-0.88,0.59-1.77,0.88-2.66C5.2,5.65,5.26,5.56,5.46,5.56c2.07,0.01,4.14,0.01,6.22,0.01C11.75,5.57,11.83,5.57,11.97,5.57z"/>
	<path class="st1" d="M16.44,5.57c1.03,0,2.05,0,3.08,0c1.13,0,2.25,0,3.38,0c0.15,0,0.22,0.04,0.26,0.18
		c0.38,1.15,0.77,2.3,1.15,3.46c0.01,0.03,0.01,0.06,0.02,0.11c-0.56,0-1.11,0-1.67,0c-0.87,0-1.75,0-2.62,0
		c-0.14,0-0.22-0.04-0.32-0.15c-0.47-0.52-0.96-1.02-1.43-1.54C17.86,7.16,17.43,6.68,17,6.22c-0.19-0.21-0.39-0.4-0.59-0.6
		C16.42,5.6,16.43,5.58,16.44,5.57z"/>
	<path class="st1" d="M9.49,12.34c0.19,0,0.35,0.01,0.51,0c0.18-0.02,0.23,0.06,0.22,0.22c-0.01,0.38,0,0.75,0,1.13
		c0,2.36,0,4.73,0,7.09c0,0.06,0,0.13,0,0.21c-0.24,0-0.48,0-0.73,0C9.49,18.12,9.49,15.24,9.49,12.34z"/>
	<path class="st1" d="M18.84,20.99c-0.24,0-0.47,0-0.71,0c0-0.05-0.01-0.09-0.01-0.13c0-2.75,0-5.51,0-8.26
		c0-0.21,0.05-0.29,0.27-0.27c0.14,0.02,0.29,0,0.45,0C18.84,15.23,18.84,18.1,18.84,20.99z"/>
	<path class="st1" d="M10.64,11.47c-0.53,0-1.05,0-1.58,0c0-0.22,0-0.42,0-0.64c0.52,0,1.05,0,1.58,0
		C10.64,11.04,10.64,11.25,10.64,11.47z"/>
	<path class="st1" d="M17.69,11.46c0-0.21,0-0.42,0-0.64c0.53,0,1.05,0,1.59,0c0,0.21,0,0.42,0,0.64
		C18.75,11.46,18.23,11.46,17.69,11.46z"/>
	<path class="st1" d="M9.05,21.88c0.54,0,1.06,0,1.59,0c0,0.21,0,0.41,0,0.63c-0.53,0-1.05,0-1.59,0
		C9.05,22.31,9.05,22.11,9.05,21.88z"/>
	<path class="st1" d="M19.28,21.88c0,0.22,0,0.42,0,0.63c-0.54,0-1.06,0-1.59,0c0-0.21,0-0.42,0-0.63
		C18.23,21.88,18.76,21.88,19.28,21.88z"/>
</g>
</svg>
