<?xml version="1.0" encoding="utf-8"?>
<!-- Generator: Adobe Illustrator 25.0.0, SVG Export Plug-In . SVG Version: 6.00 Build 0)  -->
<svg version="1.1" id="Layer_1" xmlns="http://www.w3.org/2000/svg" xmlns:xlink="http://www.w3.org/1999/xlink" x="0px" y="0px"
	 viewBox="0 0 28.4 28.4" style="enable-background:new 0 0 28.4 28.4;" xml:space="preserve">
<style type="text/css">
	.st0{fill:#E30613;}
</style>
<g>
	<path class="st0" d="M19.2,15.4c-0.1,0.3-0.3,0.5-0.4,0.9c1.1,0,2.1,0.2,3,0c1.2-0.4-1-0.7,3.5-0.4c0,0.6,0,1.2,0,1.7
		c0.3,0,0.4,0.1,0.6,0.1c0,0.2,0,0.4,0.1,0.6c0.4,0.1,0.7,0.2,1.1,0.3c0,0.1,0,0.1,0,0.2c-0.2,0.2-0.4,0.5-0.7,0.6
		c-0.5,0.1-0.4,0.4-0.4,0.8c0,1.6,0,3.2,0,4.9c0.8,0,1.5,0,2.3,0c0,0.3,0,0.6,0,0.9c-9.4,0-18.7,0-28.1,0c0-0.3,0-0.6,0-0.9
		c0.7,0,1.5,0,2.2,0c0-1.9,0-3.7,0-5.4c-0.5-0.3-0.9-0.5-1.3-0.8c0-0.1,0-0.1,0-0.2c0.3-0.1,0.6-0.2,1-0.3c0-0.1,0-0.3,0.1-0.6
		c0.2-0.1,0.3-0.1,0.6-0.2c0-0.4,0-0.8,0-1.2c0-0.1,0.2-0.3,0.3-0.4c0.9,0,2-0.2,2.8,0c1.3,0.4,2.5,0,3.9,0.3
		c-0.3-0.7-0.5-1.2-0.7-1.8c0.4,0,0.6-0.1,1-0.1c0-0.7,0-1.5,0-2.2c0-0.3-0.3-0.5-0.4-0.8c-0.1-0.1-0.2-0.2-0.3-0.3
		c0.1-0.1,0.3-0.1,0.4-0.2c0.1,0,0.1,0,0.3,0c-0.1-0.3-0.2-0.5-0.3-0.8c0.1,0,0.3-0.1,0.5-0.2C10.4,8.5,11.4,7.5,13,7
		c-0.3-0.4,0-0.6,0.4-0.7c0.1-1.2,0.1-1.2-0.3-1.5c0.2-0.2,0.5-0.4,0.7-0.6c0.1,0,0.1-0.2,0.1-0.2c-0.5-0.8,0.3-1.2,0.3-1.9
		c0,0.6,0.3,0.5,0.4,1.2c0,0.1,0,0.2,0,0.2c-0.1,0.3-0.3,0.5,0,0.7c0.2,0.1,0.4,0.4,0.6,0.6c-0.7,0.3-0.2,0.9-0.4,1.4
		c0.3,0.1,0.8,0.1,0.4,0.7c1.6,0.4,2.6,1.5,2.8,3.1c0.2,0.1,0.4,0.1,0.6,0.2c-0.1,0.3-0.1,0.5-0.2,0.8c0.2,0,0.4,0,0.5,0
		c0.1,0,0.2,0.1,0.3,0.1c-0.1,0.1-0.1,0.2-0.2,0.3c-0.1,0.4-0.6,0.6-0.6,1.1c0.1,0.6,0,1.2,0,1.9c0.3,0,0.6,0.1,0.9,0.1 M21.8,18.5
		c-0.2-0.1-0.3-0.2-0.4-0.2c-2.3-0.9-4.7-1.7-7-2.6c-0.2-0.1-0.6-0.1-0.8,0c-2.3,0.8-4.5,1.6-6.8,2.5c-0.1,0.1-0.3,0.1-0.6,0.3
		C11.5,18.5,16.6,18.5,21.8,18.5z M15.3,24.4c0.4,0.1,0.5,0,0.5-0.3c0-1.3,0-2.7,0-4.1c0-0.4-0.2-0.4-0.5-0.3
		C15.3,21.2,15.3,22.8,15.3,24.4z M20,24.3c0,0,0.1,0.1,0.1,0.1c0.1-0.1,0.4-0.2,0.4-0.3c0-1.5,0-3,0-4.5c-0.2,0-0.4,0-0.6,0
		C20,21.2,20,22.8,20,24.3z M9.2,19.6c-0.4-0.1-0.6,0-0.6,0.4c0,1.3,0,2.7,0,4c0,0.4,0.2,0.5,0.6,0.4C9.2,22.8,9.2,21.2,9.2,19.6z
		 M12.5,24.3c0.1,0,0.1,0.1,0.2,0.1c0.1-0.1,0.3-0.3,0.3-0.4c0-1.3,0-2.7,0-4c0-0.4-0.1-0.5-0.5-0.4C12.5,21.2,12.5,22.8,12.5,24.3z
		 M11.8,24.5c0.1,0,0.1-0.1,0.2-0.1c0-1.6,0-3.1,0-4.7c-0.4-0.1-0.5,0-0.5,0.3c0,1.3,0,2.7,0,4.1C11.5,24.2,11.6,24.3,11.8,24.5z
		 M5.5,23.3c0-0.6,0-1.2,0-1.8c0-0.4-0.6-0.6-0.6-0.6s-0.5,0.3-0.6,0.6c-0.1,0.6,0,1.2,0,1.8C4.7,23.3,5,23.3,5.5,23.3z M23.7,23.3
		c0-0.6,0-1.2,0-1.8c0-0.2-0.3-0.4-0.5-0.6c-0.2,0.2-0.5,0.4-0.6,0.6c-0.1,0.6,0,1.2,0,1.8C22.9,23.3,23.3,23.3,23.7,23.3z
		 M8.2,19.6c-0.1,0-0.1-0.1-0.2-0.1c-0.1,0.1-0.3,0.3-0.3,0.4c0,1.4,0,2.8,0,4.2c0,0.1,0.2,0.2,0.3,0.3c0.1-0.1,0.2-0.2,0.2-0.3
		C8.2,22.6,8.2,21.1,8.2,19.6z M16.2,19.6c0,1.5,0,3,0,4.4c0,0.1,0.2,0.2,0.3,0.3c0.1-0.1,0.2-0.2,0.2-0.4c0-1.4,0-2.7,0-4.1
		C16.7,19.6,16.6,19.5,16.2,19.6z M19.5,19.6c-0.1,0-0.1-0.1-0.2-0.1c-0.1,0.1-0.3,0.3-0.3,0.4c0,1.4,0,2.8,0,4.2
		c0,0.1,0.2,0.2,0.3,0.3c0.1-0.1,0.2-0.2,0.2-0.3C19.5,22.6,19.5,21.1,19.5,19.6z M15.3,14.6c0-0.4,0.1-1.5,0-1.8
		c0-0.2-0.9-1.4-1.1-1.4S13,12.7,13,12.8c-0.1,0.3,0,1.4,0,1.8C13.3,14.6,14.9,14.6,15.3,14.6z M14.4,6.2c0-0.6,0-0.8-0.3-0.9
		c-0.2,0-0.2,0.3-0.3,0.5C13.8,6.1,13.7,6.4,14.4,6.2z"/>
	<path class="st0" d="M2.8,13.8c-0.2,0-0.1-0.2-0.3-0.3c0.1-0.1,0.3-0.3,0.5-0.5c0-0.5,0.2-1,0.9-1.2c0.1-0.1,0.2-0.3,0.3-0.4
		c0.1-0.3,0.1-0.5,0.1-0.9c0.1,0.1,0.1,0.2,0.1,0.3c0.1,0.6,0.3,1.1,0.9,1.4c0.2,0.1,0.3,0.5,0.4,0.7C5.8,12.9,5.9,13,6,13.2
		c0,0.1,0.1,0.2,0.1,0.3c0,0.1,0,0.2-0.1,0.2 M5.9,13.7c0,0.3,0,0.7,0,1c0,0.2-0.1,0.6,0.3,0.6c0,0,0.1,0.4,0,0.5
		C6.1,15.9,5.9,16,5.8,16c-1,0-1.9,0-2.9,0c-0.2,0-0.5-0.1-0.6-0.3c-0.2-0.3,0.1-0.4,0.3-0.4c0.1,0,0.1-0.2,0.1-0.4
		c0-0.4,0-0.7,0-1.1 M3.7,15.3c0.5,0,0.8,0,1.2,0c-0.1-0.3-0.2-1-0.3-1.2C4.5,14,4,14,4,14.1C3.8,14.3,3.8,14.9,3.7,15.3z"/>
	<path class="st0" d="M22.1,13.8c1.1,0,2.1,0,3.2,0c0,0.3,0,0.7,0,1c0,0.2-0.1,0.6,0.3,0.6c0.1,0,0.1,0.2,0.1,0.3
		c-0.1,0.1-0.2,0.3-0.3,0.3c-0.3,0.1-0.5,0-0.8,0c-0.8,0-1.6,0-2.4,0c-0.2,0-0.4-0.2-0.6-0.3c0.1-0.1,0.2-0.3,0.4-0.5
		c0,0,0.1,0,0.1,0C22.1,14.8,22.1,14.3,22.1,13.8z M24.2,15.3c-0.1-0.4-0.1-0.8-0.2-1.1c0-0.1-0.6-0.1-0.6,0
		c-0.1,0.3-0.2,0.7-0.3,1.1C23.4,15.3,23.7,15.3,24.2,15.3z"/>
	<path class="st0" d="M23.7,10.6c0,0.1,0,0.1,0.1,0.2c0.1,0.6,0.2,1,0.9,1.3c0.2,0.1,0.3,0.4,0.4,0.7c0.1,0.2,0,0.5,0.4,0.5
		c0,0,0.1,0.2,0.1,0.2c0,0.1-0.1,0.2-0.2,0.2c-1.1,0-2.1,0-3.2,0c-0.1,0-0.1-0.2-0.2-0.3c0.5-0.2,0.3-0.7,0.5-1
		c0.1-0.1,0.1-0.2,0.2-0.3C23.4,11.9,23.5,11.3,23.7,10.6z"/>
	<path class="st0" d="M8.6,18.1c3.7,0,7.4,0,11.1,0c-1.2-0.4-2.1-0.7-3.1-1c-0.9-0.3-1.6-0.8-2.5-0.8c-0.9,0-1.8,0.5-2.7,0.8"/>
</g>
</svg>
