<?xml version="1.0" encoding="utf-8"?>
<!-- Generator: Adobe Illustrator 25.0.0, SVG Export Plug-In . SVG Version: 6.00 Build 0)  -->
<svg version="1.1" id="Layer_1" xmlns="http://www.w3.org/2000/svg" xmlns:xlink="http://www.w3.org/1999/xlink" x="0px" y="0px"
	 viewBox="0 0 28.35 28.35" style="enable-background:new 0 0 28.35 28.35;" xml:space="preserve">
<style type="text/css">
	.st0{fill:#F6AF95;}
	.st1{fill:#E30613;}
</style>
<g>
	<rect x="0.5" y="0.5" class="st0" width="27.35" height="27.35"/>
	<path class="st1" d="M27.35,1v26.35H1V1H27.35 M28.35,0H0v28.35h28.35V0L28.35,0z"/>
</g>
<g>
	<path class="st1" d="M14.11,6.28c0.55,0.64,1.04,1.2,1.52,1.79c0.12,0.15,0.22,0.37,0.22,0.56c0.16,3.8,0.3,7.61,0.44,11.41
		c0,0.06-0.03,0.12-0.05,0.21c-1.42,0-2.83,0-4.22,0c0-1.07-0.03-2.12,0.01-3.18c0.09-2.63,0.23-5.27,0.31-7.9
		c0.02-0.57,0.11-1.04,0.54-1.46C13.31,7.28,13.67,6.79,14.11,6.28z"/>
	<path class="st1" d="M21.64,23.14c0,0.55,0,1.05,0,1.6c-5.01,0-10,0-15.04,0c0-0.52,0-1.03,0-1.6
		C11.59,23.14,16.58,23.14,21.64,23.14z"/>
	<path class="st1" d="M10.86,22.49c0-0.52,0-1.01,0-1.54c2.16,0,4.3,0,6.48,0c0,0.51,0,1,0,1.54
		C15.21,22.49,13.07,22.49,10.86,22.49z"/>
	<path class="st1" d="M15.13,6.33c-0.69-0.51-1.33-0.56-2.02,0c0.19-0.81,0.1-1.47-0.67-1.96c0.87,0,1.43-0.35,1.67-1.22
		c0.28,0.82,0.77,1.26,1.68,1.2C15.05,4.87,14.87,5.5,15.13,6.33z"/>
</g>
</svg>
