<?xml version="1.0" encoding="utf-8"?>
<!-- Generator: Adobe Illustrator 25.0.0, SVG Export Plug-In . SVG Version: 6.00 Build 0)  -->
<svg version="1.1" id="Layer_1" xmlns="http://www.w3.org/2000/svg" xmlns:xlink="http://www.w3.org/1999/xlink" x="0px" y="0px"
	 viewBox="0 0 28.4 28.4" style="enable-background:new 0 0 28.4 28.4;" xml:space="preserve">
<style type="text/css">
	.st0{fill:#E30613;}
</style>
<g>
	<path class="st0" d="M14.5,0.3c0,0.2,0,0.5,0,0.7c0.3,0,0.6,0,0.9,0c0,0.2,0,0.4,0,0.6c-0.3,0-0.6,0-0.9,0c0,0,0,0.1,0,0.1
		c0,0.4,0,0.8,0,1.2c0,0.1,0,0.1,0.1,0.2c0.5,0.6,1.1,1.3,1.6,1.9c0.5,0.6,1,1.1,1.4,1.7c0,0,0.1,0.1,0.2,0.1c0.4,0,0.8,0,1.1,0
		c0,0.4,0,0.8,0,1.2c-0.2,0-0.5,0-0.7,0c0,1.5,0,2.9,0,4.4c-0.3-0.1-0.5-0.3-0.7-0.4c-1.1-0.6-2.2-1.2-3.2-1.7c-0.1,0-0.1,0-0.2,0
		c-1.3,0.7-2.5,1.4-3.8,2c-0.1,0-0.1,0-0.2,0.1c0-1.5,0-2.9,0-4.4c-0.2,0-0.5,0-0.7,0c0-0.1,0-0.2,0-0.3c0-0.3,0-0.5,0-0.8
		c0-0.1,0-0.1,0.1-0.1c0.3,0,0.7,0,1,0c0.1,0,0.1,0,0.2-0.1c0.7-0.8,1.4-1.6,2.1-2.4c0.3-0.4,0.7-0.8,1-1.1c0,0,0.1-0.1,0.1-0.1
		c0-0.4,0-0.9,0-1.4c-0.3,0-0.6,0-0.9,0c0-0.2,0-0.4,0-0.6c0.3,0,0.6,0,0.9,0c0-0.2,0-0.5,0-0.7C14.1,0.3,14.3,0.3,14.5,0.3z
		 M15.3,8.2c0-0.6-0.5-1-1.1-1.1c-0.6,0-1.1,0.5-1.1,1c0,0.6,0.5,1,1,1.1C14.8,9.3,15.3,8.7,15.3,8.2z"/>
	<path class="st0" d="M5.5,28.1c0-0.4,0-0.9,0-1.3c0-0.1,0-0.1,0-0.2c5.8,0,11.6,0,17.4,0c0,0.5,0,1,0,1.5
		C17.1,28.1,11.3,28.1,5.5,28.1z"/>
	<path class="st0" d="M20.4,24.3c-1.4,0-2.9,0-4.3,0c0-0.1,0-0.1,0-0.2c0-1.6,0-3.3,0-4.9c0-0.1,0-0.2-0.1-0.2
		c-0.6-0.5-1.2-1-1.7-1.5c-0.1-0.1-0.1-0.1-0.2,0c-0.5,0.4-0.9,0.8-1.4,1.2c-0.1,0.1-0.2,0.2-0.4,0.3c-0.1,0.1-0.1,0.1-0.1,0.2
		c0,1.6,0,3.3,0,4.9c0,0.1,0,0.1,0,0.2c-1.4,0-2.9,0-4.3,0c0,0,0-0.1,0-0.1c0-3.3,0-6.6,0-9.8c0-0.1,0-0.2,0.1-0.2
		c2-1.1,4-2.1,6-3.2c0.1,0,0.1,0,0.2,0c1.2,0.7,2.5,1.3,3.7,2c0.8,0.4,1.5,0.8,2.3,1.2c0.1,0.1,0.2,0.1,0.2,0.2c0,3.3,0,6.5,0,9.8
		C20.4,24.2,20.4,24.2,20.4,24.3z M15.7,15c0-0.7-0.6-1.4-1.5-1.4c-0.8,0-1.5,0.6-1.5,1.4c0,0.7,0.6,1.4,1.5,1.4
		C15.1,16.4,15.7,15.6,15.7,15z"/>
	<path class="st0" d="M21.5,24.7c0,0.4,0,0.9,0,1.3c0,0.1,0,0.1,0,0.2c-4.8,0-9.7,0-14.5,0c0-0.5,0-1,0-1.5
		C11.8,24.7,16.6,24.7,21.5,24.7z"/>
</g>
</svg>
