<?xml version="1.0" encoding="utf-8"?>
<!-- Generator: Adobe Illustrator 25.0.0, SVG Export Plug-In . SVG Version: 6.00 Build 0)  -->
<svg version="1.1" id="Layer_1" xmlns="http://www.w3.org/2000/svg" xmlns:xlink="http://www.w3.org/1999/xlink" x="0px" y="0px"
	 viewBox="0 0 28.4 28.4" style="enable-background:new 0 0 28.4 28.4;" xml:space="preserve">
<style type="text/css">
	.st0{fill:#E30613;}
</style>
<path class="st0" d="M15.3,0.2v2.1h2.2v2.1h-2.2V8c0,0.1,0,0.2,0.1,0.3c1.4,1.5,2.8,3.1,4.3,4.7c0,0.1,0.1,0.2,0.1,0.2
	c0,0.8,0,1.6,0,2.4c0,0.1,0,0.2,0.1,0.3l4.5,2.8l1.7,1c0.5,0.3,0.7,0.9,0.4,1.4c0,0,0,0,0,0.1c-0.3,0.5-1,0.7-1.6,0.3l0,0l-0.5-0.4
	v6.9h-6.7v-2c0-0.7-0.2-1.3-0.6-1.8c-0.6-0.8-1.4-1.3-2.4-1.4c-1.6-0.2-3.1,0.7-3.6,2.2c-0.1,0.4-0.2,0.9-0.2,1.4v1.8H4v-6.9
	l-0.5,0.3C3,21.9,2.3,21.7,2,21.2c-0.1-0.2-0.2-0.4-0.2-0.6c0-0.4,0.2-0.7,0.5-0.9l2-1.1l4.1-2.2c0.1,0,0.2-0.1,0.2-0.2c0,0,0,0,0,0
	v-3c0-0.1,0-0.2,0.1-0.3l3.6-4c0.2-0.3,0.5-0.5,0.7-0.8c0,0,0.1-0.1,0.1-0.1V4.6c0,0,0-0.1,0-0.1h-2.2V2.4H13V0.2H15.3z M14.2,14.1
	c-1.2-0.2-2.4,0.6-2.6,1.8c-0.2,1.2,0.6,2.4,1.8,2.6c0.3,0.1,0.6,0.1,0.8,0c1.2,0.2,2.4-0.6,2.6-1.8c0.2-1.2-0.6-2.4-1.8-2.6
	C14.7,14.1,14.4,14.1,14.2,14.1z"/>
</svg>
