<?xml version="1.0" encoding="utf-8"?>
<!-- Generator: Adobe Illustrator 25.0.0, SVG Export Plug-In . SVG Version: 6.00 Build 0)  -->
<svg version="1.1" id="Layer_1" xmlns="http://www.w3.org/2000/svg" xmlns:xlink="http://www.w3.org/1999/xlink" x="0px" y="0px"
	 viewBox="0 0 28.35 28.35" style="enable-background:new 0 0 28.35 28.35;" xml:space="preserve">
<style type="text/css">
	.st0{fill:#F6AF95;}
	.st1{fill:#E30613;}
</style>
<g>
	<rect x="0.5" y="0.5" class="st0" width="27.35" height="27.35"/>
	<path class="st1" d="M27.35,1v26.35H1V1H27.35 M28.35,0H0v28.35h28.35V0L28.35,0z"/>
</g>
<g>
	<path class="st1" d="M2.86,24.65c0-0.36,0-0.68,0-1.06c0.32-0.02,0.64-0.05,0.99-0.07c0-5.63,0-11.24,0-16.9
		C3.53,6.59,3.22,6.56,2.87,6.52c0-0.31,0-0.61,0-0.94c7.53,0,15.04,0,22.61,0c0,0.3,0,0.61,0,0.95c-0.32,0.02-0.62,0.04-0.96,0.07
		c0,5.63,0,11.24,0,16.91c0.3,0.02,0.61,0.04,0.97,0.07c0,0.35,0,0.69,0,1.06C17.94,24.65,10.41,24.65,2.86,24.65z M21.22,6.61
		c-4.71,0-9.38,0-14.09,0c0,5.65,0,11.26,0,16.91c4.71,0,9.38,0,14.09,0C21.22,17.87,21.22,12.26,21.22,6.61z M4.72,7.21
		c-0.04,0-0.09,0-0.13,0c0,5.23,0,10.46,0,15.69c0.04,0,0.09,0,0.13,0C4.72,17.67,4.72,12.44,4.72,7.21z M5.58,7.21
		c-0.33,0.67-0.26,15.39,0,15.74C5.58,17.67,5.58,12.44,5.58,7.21z M6.25,22.9c0.04,0,0.09,0,0.13,0c0-5.23,0-10.46,0-15.69
		c-0.04,0-0.09,0-0.13,0C6.25,12.44,6.25,17.67,6.25,22.9z M22.1,7.21c-0.04,0-0.09,0-0.13,0c0,5.23,0,10.46,0,15.69
		c0.04,0,0.09,0,0.13,0C22.1,17.67,22.1,12.44,22.1,7.21z M22.94,7.21c-0.33,0.71-0.26,15.4,0,15.73
		C22.94,17.67,22.94,12.44,22.94,7.21z M23.62,22.9c0.04,0,0.09,0,0.13,0c0-5.23,0-10.46,0-15.69c-0.04,0-0.09,0-0.13,0
		C23.62,12.44,23.62,17.67,23.62,22.9z"/>
	<path class="st1" d="M25.46,5.31c-7.54,0-15.05,0-22.56,0c-0.21-0.47,0.1-0.53,0.41-0.6C6.35,4.05,9.42,3.5,12.42,2.7
		c1.67-0.44,3.17-0.02,4.72,0.3c2.63,0.55,5.24,1.13,7.87,1.7C25.31,4.77,25.65,4.8,25.46,5.31z"/>
	<path class="st1" d="M2.13,26.3c0-0.48,0-0.92,0-1.4c8.03,0,16.03,0,24.07,0c0,0.45,0,0.9,0,1.4C18.2,26.3,10.2,26.3,2.13,26.3z"/>
	<path class="st1" d="M14.99,12.09c0.97,0.13,1.95,0.34,2.92,0.35c0.9,0.01,1.8-0.2,2.77-0.32c0.03,1.47-0.21,2.88-0.61,4.26
		c-0.43,1.49-1.33,2.64-2.62,3.48c-0.71,0.46-1.05,0.46-1.7-0.09c-0.43-0.37-0.82-0.79-1.22-1.19c-0.22-0.39-0.44-0.78-0.66-1.17
		c-0.14-0.39-0.28-0.79-0.42-1.18c-0.06-0.5-0.12-1.01-0.18-1.51c-0.02-0.99-0.04-1.98-0.06-2.97C13.8,11.87,14.4,11.98,14.99,12.09
		z M15.46,17.64c0.77,1.1,1.74,1.13,2.47,0.11C17.14,17.72,16.29,17.68,15.46,17.64z M16.25,14.71c-0.76-0.79-1.51-0.75-2.04,0
		C14.86,14.71,15.49,14.71,16.25,14.71z M19.41,15.04c0.01-0.06,0.02-0.13,0.03-0.19c-0.6-0.71-1.22-0.76-2.08-0.05
		C18.14,14.88,18.78,14.96,19.41,15.04z"/>
	<path class="st1" d="M13.27,14.73c0.06,0.5,0.12,1.01,0.18,1.51c-0.12,0.11-0.26,0.21-0.37,0.33c-0.35,0.35-0.69,0.7-1.03,1.04
		c0.04,0.04,0.09,0.08,0.13,0.11c0.45-0.24,1.09-0.59,1.52-0.82c0.16,0.18,0.08,0.4,0.18,0.51c0.22,0.39,0.44,0.78,0.66,1.17
		c-0.09,0.56-0.49,0.77-1.18,0.61c-1.41-0.33-2.68-0.98-3.49-2.18c-0.82-1.22-1.45-2.57-2.15-3.87c-0.04-0.08-0.03-0.19-0.06-0.36
		c2.56-0.19,4.83-1.07,6.93-2.76c0.24,0.73,0.45,1.47,0.64,2.09c0,0.01-0.15-0.06-0.23-0.03c-0.6-0.11-1.19-0.22-1.79-0.33
		c-0.04,0.2,0.13,0.67,0.02,0.83c-0.18,0.27-0.34,0.29-0.62,0.51c0.24,0.04,0.47,0.12,0.6,0.07C13.35,13.13,13.21,14.59,13.27,14.73
		z M11.23,13.66c-0.62,0.47-1.12,0.84-1.74,1.31C10.59,15.16,11.15,14.74,11.23,13.66z"/>
	<path class="st1" d="M14.2,14.71"/>
	<path class="st1" d="M16.25,14.71"/>
</g>
</svg>
