<?xml version="1.0" encoding="utf-8"?>
<!-- Generator: Adobe Illustrator 25.0.0, SVG Export Plug-In . SVG Version: 6.00 Build 0)  -->
<svg version="1.1" id="Layer_1" xmlns="http://www.w3.org/2000/svg" xmlns:xlink="http://www.w3.org/1999/xlink" x="0px" y="0px"
	 viewBox="0 0 28.35 28.35" style="enable-background:new 0 0 28.35 28.35;" xml:space="preserve">
<style type="text/css">
	.st0{fill:#F6AF95;}
	.st1{fill:#E30613;}
</style>
<g>
	<rect x="0.5" y="0.5" class="st0" width="27.35" height="27.35"/>
	<path class="st1" d="M27.35,1v26.35H1V1H27.35 M28.35,0H0v28.35h28.35V0L28.35,0z"/>
</g>
<g>
	<path class="st1" d="M14.47,1.69c0,0.2,0,0.41,0,0.62c0.29,0,0.57,0,0.85,0c0,0.18,0,0.36,0,0.55c-0.28,0-0.56,0-0.84,0
		c0,0.04-0.01,0.07-0.01,0.1c0,0.36,0,0.71,0,1.07c0,0.05,0.02,0.11,0.06,0.14c0.49,0.58,0.99,1.16,1.48,1.73
		c0.43,0.5,0.86,0.99,1.29,1.49c0.03,0.03,0.1,0.05,0.15,0.05c0.34,0,0.68,0,1.03,0c0,0.36,0,0.71,0,1.08c-0.21,0-0.42,0-0.65,0
		c0,1.32,0,2.62,0,3.95c-0.23-0.12-0.44-0.23-0.65-0.35c-0.97-0.52-1.95-1.05-2.92-1.57c-0.07-0.04-0.11-0.02-0.17,0.01
		c-1.14,0.61-2.27,1.22-3.41,1.83c-0.05,0.02-0.09,0.04-0.15,0.07c0-1.31,0-2.61,0-3.93c-0.22,0-0.43,0-0.67,0c0-0.11,0-0.2,0-0.3
		c0-0.23,0-0.46,0-0.69c0-0.08,0.03-0.11,0.12-0.11c0.31,0,0.62,0.01,0.93,0c0.06,0,0.13-0.03,0.16-0.07
		c0.63-0.72,1.25-1.44,1.87-2.17c0.3-0.34,0.59-0.69,0.88-1.03c0.02-0.03,0.05-0.06,0.05-0.1c0-0.4,0-0.8,0-1.22
		c-0.29,0-0.56,0-0.85,0c0-0.19,0-0.37,0-0.55c0.28,0,0.56,0,0.85,0c0-0.21,0-0.42,0-0.62C14.08,1.69,14.27,1.69,14.47,1.69z
		 M15.15,8.78c0.01-0.52-0.42-0.94-0.97-0.95c-0.53-0.01-0.97,0.41-0.98,0.91c-0.02,0.55,0.45,0.92,0.9,0.95
		C14.7,9.73,15.16,9.27,15.15,8.78z"/>
	<path class="st1" d="M6.31,26.65c0-0.39,0-0.78,0.01-1.17c0-0.05,0-0.11,0-0.17c5.24,0,10.47,0,15.69,0c0,0.45,0,0.89,0,1.34
		C16.78,26.65,11.54,26.65,6.31,26.65z"/>
	<path class="st1" d="M19.78,23.28c-1.29,0-2.57,0-3.86,0c0-0.06,0-0.1,0-0.15c0-1.46,0-2.93,0-4.39c0-0.08-0.02-0.14-0.09-0.2
		c-0.53-0.45-1.05-0.9-1.57-1.36c-0.07-0.06-0.11-0.05-0.17,0c-0.42,0.36-0.84,0.72-1.26,1.09c-0.11,0.09-0.21,0.19-0.32,0.27
		c-0.07,0.05-0.09,0.11-0.09,0.2c0,1.46,0,2.93,0,4.39c0,0.05,0,0.1,0,0.16c-1.29,0-2.57,0-3.86,0c0-0.04,0-0.08,0-0.13
		c0-2.95,0-5.9,0-8.85c0-0.09,0.03-0.14,0.11-0.19c1.8-0.96,3.6-1.93,5.4-2.9c0.07-0.04,0.12-0.04,0.19,0
		c1.12,0.6,2.23,1.2,3.35,1.8c0.68,0.36,1.35,0.73,2.03,1.09c0.09,0.05,0.14,0.1,0.14,0.21c0,2.94,0,5.87,0,8.81
		C19.78,23.17,19.78,23.22,19.78,23.28z M15.49,14.9c0.03-0.66-0.56-1.26-1.31-1.26c-0.74,0-1.32,0.55-1.32,1.25
		c-0.01,0.66,0.54,1.26,1.32,1.26C15.01,16.15,15.52,15.48,15.49,14.9z"/>
	<path class="st1" d="M20.71,23.63c0,0.4,0,0.79,0,1.18c0,0.05,0,0.1,0,0.16c-4.36,0-8.71,0-13.07,0c0-0.44,0-0.88,0-1.34
		C12,23.63,16.34,23.63,20.71,23.63z"/>
</g>
</svg>
