<?xml version="1.0" encoding="utf-8"?>
<!-- Generator: Adobe Illustrator 25.0.0, SVG Export Plug-In . SVG Version: 6.00 Build 0)  -->
<svg version="1.1" id="Layer_1" xmlns="http://www.w3.org/2000/svg" xmlns:xlink="http://www.w3.org/1999/xlink" x="0px" y="0px"
	 viewBox="0 0 28.4 28.4" style="enable-background:new 0 0 28.4 28.4;" xml:space="preserve">
<style type="text/css">
	.st0{fill:#636AAF;}
</style>
<g>
	<path class="st0" d="M22.9,27.4c-0.2-0.1-0.4-0.2-0.6-0.4c-2.6-1.8-5.2-3.7-7.9-5.6c-0.2-0.1-0.3-0.1-0.5,0c-2.7,1.9-5.3,3.8-8,5.8
		c-0.1,0.1-0.2,0.1-0.4,0.3c0.1-0.3,0.2-0.6,0.2-0.9c0.5-1.7,1.1-3.4,1.6-5.1c0-0.1,0-0.2-0.1-0.4c-0.5-0.6-0.5-1-0.1-1.6
		c0.3-0.4,0.6-0.8,0.9-1.1c0.2-0.2,0.3-0.5,0.3-0.7c0.1-0.5-0.1-0.7-0.5-1c-2.5-1.9-5-3.8-7.5-5.7c-0.1-0.1-0.2-0.2-0.4-0.3
		c0.2,0,0.2,0,0.3,0c2.9,0,5.8,0,8.7,0c0.2,0,0.3,0,0.4-0.2c0.2-0.2,0.4-0.5,0.6-0.7c0.2-0.2,0.4-0.3,0.7-0.3c0.2,0,0.3,0,0.4-0.2
		c0.9-2.8,1.9-5.6,2.8-8.4c0-0.1,0.1-0.2,0.1-0.3c0.2,0.4,0.3,0.8,0.4,1.2c0.8,2.2,1.5,4.5,2.3,6.7c0,0.1,0.2,0.3,0.3,0.4
		c0.6,0.4,1.1,0.9,1.5,1.5c0.1,0.1,0.2,0.2,0.4,0.2c2.9,0,5.9,0,8.8,0c0.1,0,0.2,0,0.3,0c0.2,0.4,0.2,0.4,0.1,0.5
		c-2.5,1.9-5,3.8-7.5,5.6c-0.2,0.2-0.4,0.3-0.7,0.5c0,0-0.1,0.1-0.1,0.2c0.1,0.3,0.1,0.5,0.4,0.7s0.6,0.5,0.9,0.8
		c0.6,0.6,0.6,1.4-0.1,1.9c-0.1,0.1-0.1,0.2-0.1,0.3c0.6,1.8,1.1,3.5,1.7,5.3C22.8,26.7,22.8,27.1,22.9,27.4L22.9,27.4z M9.7,17.7
		c-0.1-0.1-0.2-0.2-0.4-0.3c-0.1,0-0.2,0-0.4,0c0,0.1,0,0.3,0,0.4C9,17.9,9.1,18,9.2,18.2C9.1,18.3,9,18.3,9,18.4
		c-0.6,0.5-1.2,1.1-1.6,1.8c-0.2,0.3-0.1,0.5,0,0.7c0.3,0.4,0.7,0.4,1,0c0.5-0.5,0.9-1.1,1.3-1.7c0.1-0.1,0.1-0.2,0.2-0.3
		c0.2,0.1,0.3,0.2,0.4,0.3c0.1,0,0.2,0,0.3,0c0.1-0.1,0.1-0.2,0-0.3c-0.1-0.1-0.3-0.2-0.4-0.4c0.2-0.2,0.3-0.3,0.4-0.4
		c0.1,0.1,0.1,0.1,0.1,0.1c1.7,1.9,4.4,2.2,6.5,0.7c0.1-0.1,0.2-0.1,0.4,0c0.7,0.6,1.4,1.1,2,1.7c0.2,0.2,0.4,0.2,0.6,0.2
		c0.6-0.2,0.7-0.8,0.3-1.2c-0.3-0.3-0.7-0.6-1.1-0.9s-0.7-0.6-1.1-0.9c0.2-0.5,0.5-1,0.6-1.4c0.4-1,0.3-2.1,0-3.1
		c-0.4-1.4-1.1-2.6-2.3-3.4C16,9,15,8.5,14,8.1c-0.1,0-0.3-0.1-0.3,0.1c0,0.1,0.1,0.2,0.2,0.2c0.5,0.3,0.9,0.6,1.4,0.9
		c1.9,1.2,2.8,3.4,2.3,5.5c-0.1,0.5-0.3,1-0.6,1.4c-1.7-1.4-3.3-2.8-5-4.2c0.4-0.5,0.8-1,1.3-1.5c-0.1,0-0.2,0-0.2-0.1
		c-0.7-0.1-1.5-0.2-2.3-0.3c-0.1,0-0.2,0.1-0.3,0.1c-0.6,0.6-1.1,1.3-1.7,1.9C8.5,12.4,8.3,12.7,8,13c0.6,0.5,1.2,1,1.8,1.5
		c0.4-0.5,0.9-1,1.3-1.5c1.6,1.4,3.2,2.7,4.9,4.1c-0.6,0.5-1.3,0.8-2.1,0.8c-1,0-1.8-0.4-2.5-1.1c-0.4-0.4-0.6-0.4-1,0
		C10.2,17.2,10,17.5,9.7,17.7z"/>
</g>
</svg>
